%FSLAX34Y34*%
%MOMM*%
%LNSOLDERMASK_BOTTOM*%
G71*
G01*
%ADD10C, 2.20*%
%ADD11C, 2.20*%
%ADD12C, 2.10*%
%ADD13C, 2.10*%
%ADD14C, 2.20*%
%ADD15C, 2.10*%
%ADD16C, 3.50*%
%ADD17C, 0.80*%
%ADD18C, 5.60*%
%LPD*%
X171450Y-1471006D02*
G54D10*
D03*
G36*
X323962Y-71738D02*
X345962Y-71738D01*
X345962Y-93738D01*
X323962Y-93738D01*
X323962Y-71738D01*
G37*
X334962Y-57338D02*
G54D11*
D03*
X221456Y-57338D02*
G54D11*
D03*
G36*
X210456Y-71738D02*
X232456Y-71738D01*
X232456Y-93738D01*
X210456Y-93738D01*
X210456Y-71738D01*
G37*
G36*
X405718Y-363044D02*
X427718Y-363044D01*
X427718Y-385044D01*
X405718Y-385044D01*
X405718Y-363044D01*
G37*
X416718Y-348644D02*
G54D11*
D03*
X334168Y-348644D02*
G54D11*
D03*
G36*
X323168Y-363044D02*
X345168Y-363044D01*
X345168Y-385044D01*
X323168Y-385044D01*
X323168Y-363044D01*
G37*
G36*
X462575Y-72238D02*
X483575Y-72238D01*
X483575Y-93238D01*
X462575Y-93238D01*
X462575Y-72238D01*
G37*
X473075Y-57338D02*
G54D12*
D03*
G36*
X753087Y-72238D02*
X774087Y-72238D01*
X774087Y-93238D01*
X753087Y-93238D01*
X753087Y-72238D01*
G37*
X763587Y-57338D02*
G54D13*
D03*
X146050Y-963006D02*
G54D14*
D03*
X146050Y-988406D02*
G54D14*
D03*
X146050Y-1013806D02*
G54D14*
D03*
X146050Y-1039206D02*
G54D14*
D03*
X146050Y-1064606D02*
G54D14*
D03*
X146050Y-1090006D02*
G54D14*
D03*
X146050Y-1115406D02*
G54D14*
D03*
X146050Y-1140806D02*
G54D14*
D03*
X146050Y-1166206D02*
G54D14*
D03*
X146050Y-1191606D02*
G54D14*
D03*
X146050Y-1217006D02*
G54D14*
D03*
X146050Y-1242406D02*
G54D14*
D03*
X146050Y-1267806D02*
G54D14*
D03*
X146050Y-1293206D02*
G54D14*
D03*
X146050Y-1318606D02*
G54D14*
D03*
X146050Y-1344006D02*
G54D14*
D03*
X146050Y-1369406D02*
G54D14*
D03*
X146050Y-1394806D02*
G54D14*
D03*
X146050Y-1420206D02*
G54D14*
D03*
X146050Y-1445606D02*
G54D14*
D03*
X146050Y-1471006D02*
G54D14*
D03*
X171450Y-1445606D02*
G54D10*
D03*
X171450Y-1420206D02*
G54D10*
D03*
X171450Y-1394806D02*
G54D10*
D03*
X171450Y-1369406D02*
G54D10*
D03*
X171450Y-1344006D02*
G54D10*
D03*
X171450Y-1318606D02*
G54D10*
D03*
X171450Y-1293206D02*
G54D10*
D03*
X171450Y-1267806D02*
G54D10*
D03*
X171450Y-1242406D02*
G54D10*
D03*
X171450Y-1217006D02*
G54D10*
D03*
X171450Y-1191606D02*
G54D10*
D03*
X171450Y-1166206D02*
G54D10*
D03*
X171450Y-1140806D02*
G54D10*
D03*
X171450Y-1115406D02*
G54D10*
D03*
X171450Y-1090006D02*
G54D10*
D03*
X171450Y-1064606D02*
G54D10*
D03*
X171450Y-1039206D02*
G54D10*
D03*
X171450Y-1013806D02*
G54D10*
D03*
X171450Y-988406D02*
G54D10*
D03*
X171450Y-963006D02*
G54D10*
D03*
X476250Y-1090006D02*
G54D14*
D03*
X476250Y-1115406D02*
G54D14*
D03*
X476250Y-1140806D02*
G54D14*
D03*
X476250Y-1166206D02*
G54D14*
D03*
X476250Y-1191606D02*
G54D14*
D03*
X476250Y-1217006D02*
G54D14*
D03*
X476250Y-1242406D02*
G54D14*
D03*
X476250Y-1267806D02*
G54D14*
D03*
X476250Y-1293206D02*
G54D14*
D03*
X476250Y-1318606D02*
G54D14*
D03*
X476250Y-1344006D02*
G54D14*
D03*
X476250Y-1369406D02*
G54D14*
D03*
X476250Y-1394806D02*
G54D14*
D03*
X476250Y-1420206D02*
G54D14*
D03*
X475456Y-1445606D02*
G54D14*
D03*
X476250Y-1471006D02*
G54D14*
D03*
X501650Y-1471006D02*
G54D14*
D03*
X501650Y-1445606D02*
G54D14*
D03*
X501650Y-1420206D02*
G54D14*
D03*
X501650Y-1394806D02*
G54D14*
D03*
X501650Y-1369406D02*
G54D14*
D03*
X501650Y-1344006D02*
G54D14*
D03*
X501650Y-1318606D02*
G54D14*
D03*
X501650Y-1293206D02*
G54D14*
D03*
X501650Y-1267806D02*
G54D14*
D03*
X501650Y-1242406D02*
G54D14*
D03*
X501650Y-1217006D02*
G54D14*
D03*
X501650Y-1191606D02*
G54D14*
D03*
X501650Y-1166206D02*
G54D14*
D03*
X501650Y-1140806D02*
G54D14*
D03*
X501650Y-1115406D02*
G54D14*
D03*
X501650Y-1090006D02*
G54D14*
D03*
X400050Y-1471006D02*
G54D14*
D03*
X425450Y-1471006D02*
G54D14*
D03*
X450850Y-1471006D02*
G54D14*
D03*
X450850Y-1445606D02*
G54D14*
D03*
X425450Y-1445606D02*
G54D14*
D03*
X400050Y-1445606D02*
G54D14*
D03*
G36*
X296681Y-766769D02*
X317681Y-766769D01*
X317681Y-787769D01*
X296681Y-787769D01*
X296681Y-766769D01*
G37*
X307181Y-802669D02*
G54D15*
D03*
X307181Y-828069D02*
G54D15*
D03*
X307181Y-853469D02*
G54D15*
D03*
X281781Y-777269D02*
G54D15*
D03*
X281781Y-802669D02*
G54D15*
D03*
X281781Y-828069D02*
G54D15*
D03*
X281781Y-853469D02*
G54D15*
D03*
G36*
X1269962Y-173188D02*
X1304962Y-173188D01*
X1304962Y-208188D01*
X1269962Y-208188D01*
X1269962Y-173188D01*
G37*
X1287462Y-232756D02*
G54D16*
D03*
X1287462Y-274825D02*
G54D16*
D03*
X1287462Y-316894D02*
G54D16*
D03*
X1232694Y-190688D02*
G54D16*
D03*
X1232694Y-232756D02*
G54D16*
D03*
X1232694Y-274825D02*
G54D16*
D03*
X1232694Y-316894D02*
G54D16*
D03*
G36*
X1269168Y-370038D02*
X1304168Y-370038D01*
X1304168Y-405038D01*
X1269168Y-405038D01*
X1269168Y-370038D01*
G37*
X1286668Y-429606D02*
G54D16*
D03*
X1286668Y-471675D02*
G54D16*
D03*
X1286668Y-513744D02*
G54D16*
D03*
X1231900Y-387538D02*
G54D16*
D03*
X1231900Y-429606D02*
G54D16*
D03*
X1231900Y-471675D02*
G54D16*
D03*
X1231900Y-513744D02*
G54D16*
D03*
G36*
X976131Y-68269D02*
X997131Y-68269D01*
X997131Y-89269D01*
X976131Y-89269D01*
X976131Y-68269D01*
G37*
X1006475Y-78769D02*
G54D12*
D03*
G36*
X868181Y-68269D02*
X889181Y-68269D01*
X889181Y-89269D01*
X868181Y-89269D01*
X868181Y-68269D01*
G37*
X898525Y-78769D02*
G54D12*
D03*
G36*
X1269168Y-598638D02*
X1304168Y-598638D01*
X1304168Y-633638D01*
X1269168Y-633638D01*
X1269168Y-598638D01*
G37*
X1286668Y-658206D02*
G54D16*
D03*
X1231900Y-616138D02*
G54D16*
D03*
X1231900Y-658206D02*
G54D16*
D03*
G36*
X1269168Y-712938D02*
X1304168Y-712938D01*
X1304168Y-747938D01*
X1269168Y-747938D01*
X1269168Y-712938D01*
G37*
X1286668Y-772506D02*
G54D16*
D03*
X1231900Y-730438D02*
G54D16*
D03*
X1231900Y-772506D02*
G54D16*
D03*
G36*
X1269168Y-858988D02*
X1304168Y-858988D01*
X1304168Y-893988D01*
X1269168Y-893988D01*
X1269168Y-858988D01*
G37*
X1286668Y-918556D02*
G54D16*
D03*
X1231900Y-876488D02*
G54D16*
D03*
X1231900Y-918556D02*
G54D16*
D03*
G36*
X1269168Y-973288D02*
X1304168Y-973288D01*
X1304168Y-1008288D01*
X1269168Y-1008288D01*
X1269168Y-973288D01*
G37*
X1286668Y-1032856D02*
G54D16*
D03*
X1231900Y-990788D02*
G54D16*
D03*
X1231900Y-1032856D02*
G54D16*
D03*
G36*
X1269168Y-1405088D02*
X1304168Y-1405088D01*
X1304168Y-1440088D01*
X1269168Y-1440088D01*
X1269168Y-1405088D01*
G37*
X1286668Y-1464656D02*
G54D16*
D03*
X1231900Y-1422588D02*
G54D16*
D03*
X1231900Y-1464656D02*
G54D16*
D03*
G36*
X1269168Y-1125688D02*
X1304168Y-1125688D01*
X1304168Y-1160688D01*
X1269168Y-1160688D01*
X1269168Y-1125688D01*
G37*
X1286668Y-1185256D02*
G54D16*
D03*
X1231900Y-1143188D02*
G54D16*
D03*
X1231900Y-1185256D02*
G54D16*
D03*
G36*
X1269168Y-1239988D02*
X1304168Y-1239988D01*
X1304168Y-1274988D01*
X1269168Y-1274988D01*
X1269168Y-1239988D01*
G37*
X1286668Y-1299556D02*
G54D16*
D03*
X1231900Y-1257488D02*
G54D16*
D03*
X1231900Y-1299556D02*
G54D16*
D03*
G36*
X159034Y-516806D02*
X137034Y-516806D01*
X137034Y-494806D01*
X159034Y-494806D01*
X159034Y-516806D01*
G37*
X148034Y-531206D02*
G54D11*
D03*
X148034Y-556606D02*
G54D11*
D03*
X148034Y-582006D02*
G54D11*
D03*
X148034Y-607406D02*
G54D11*
D03*
X148034Y-632806D02*
G54D11*
D03*
X148034Y-658206D02*
G54D11*
D03*
G54D17*
X73606Y-86419D02*
X75676Y-86699D01*
X74946Y-86669D01*
X74156Y-86559D01*
X73136Y-86269D01*
X72566Y-86059D01*
X72066Y-85789D01*
X71506Y-85439D01*
X70766Y-84849D01*
X70120Y-84160D01*
X69546Y-83369D01*
X69236Y-82829D01*
X68866Y-81909D01*
X68676Y-81209D01*
X68556Y-80409D01*
X68516Y-79769D01*
X68526Y-57559D01*
X68546Y-54099D01*
X68646Y-53389D01*
X68656Y-53439D01*
X68826Y-52699D01*
X69116Y-51899D01*
X69556Y-51049D01*
X70286Y-50049D01*
X71086Y-49289D01*
X71776Y-48779D01*
X72436Y-48419D01*
X72996Y-48179D01*
X73756Y-47939D01*
X74196Y-47839D01*
X74686Y-47759D01*
X75526Y-47699D01*
X76266Y-47739D01*
G54D17*
X77475Y-86429D02*
X75405Y-86709D01*
X76135Y-86679D01*
X76925Y-86569D01*
X77945Y-86279D01*
X78515Y-86069D01*
X79015Y-85799D01*
X79575Y-85449D01*
X80315Y-84859D01*
X80960Y-84170D01*
X81535Y-83379D01*
X81845Y-82839D01*
X82215Y-81919D01*
X82405Y-81219D01*
X82525Y-80419D01*
X82565Y-79779D01*
X82555Y-57569D01*
X82535Y-54109D01*
X82435Y-53399D01*
X82425Y-53449D01*
X82255Y-52709D01*
X81965Y-51909D01*
X81525Y-51059D01*
X80795Y-50059D01*
X79995Y-49299D01*
X79305Y-48789D01*
X78645Y-48429D01*
X78085Y-48189D01*
X77325Y-47949D01*
X76885Y-47849D01*
X76395Y-47769D01*
X75555Y-47709D01*
X74815Y-47749D01*
G54D17*
X133606Y-86419D02*
X135676Y-86699D01*
X134946Y-86669D01*
X134156Y-86559D01*
X133136Y-86269D01*
X132566Y-86059D01*
X132066Y-85789D01*
X131506Y-85439D01*
X130766Y-84849D01*
X130120Y-84160D01*
X129546Y-83369D01*
X129236Y-82829D01*
X128866Y-81909D01*
X128676Y-81209D01*
X128556Y-80409D01*
X128516Y-79769D01*
X128526Y-57559D01*
X128546Y-54099D01*
X128646Y-53389D01*
X128656Y-53439D01*
X128826Y-52699D01*
X129116Y-51899D01*
X129556Y-51049D01*
X130286Y-50049D01*
X131086Y-49289D01*
X131776Y-48779D01*
X132436Y-48419D01*
X132996Y-48179D01*
X133756Y-47939D01*
X134196Y-47839D01*
X134686Y-47759D01*
X135526Y-47699D01*
X136266Y-47739D01*
G54D17*
X137475Y-86429D02*
X135405Y-86709D01*
X136135Y-86679D01*
X136925Y-86569D01*
X137945Y-86279D01*
X138515Y-86069D01*
X139015Y-85799D01*
X139575Y-85449D01*
X140315Y-84859D01*
X140960Y-84170D01*
X141535Y-83379D01*
X141845Y-82839D01*
X142215Y-81919D01*
X142405Y-81219D01*
X142525Y-80419D01*
X142565Y-79779D01*
X142555Y-57569D01*
X142535Y-54109D01*
X142435Y-53399D01*
X142425Y-53449D01*
X142255Y-52709D01*
X141965Y-51909D01*
X141525Y-51059D01*
X140795Y-50059D01*
X139995Y-49299D01*
X139305Y-48789D01*
X138645Y-48429D01*
X138085Y-48189D01*
X137325Y-47949D01*
X136885Y-47849D01*
X136395Y-47769D01*
X135555Y-47709D01*
X134815Y-47749D01*
G54D17*
X91328Y-113236D02*
X91048Y-115306D01*
X91078Y-114576D01*
X91188Y-113786D01*
X91478Y-112766D01*
X91688Y-112196D01*
X91958Y-111696D01*
X92308Y-111136D01*
X92898Y-110396D01*
X93588Y-109750D01*
X94378Y-109176D01*
X94918Y-108866D01*
X95838Y-108496D01*
X96538Y-108306D01*
X97338Y-108186D01*
X97978Y-108146D01*
X120188Y-108156D01*
X123648Y-108176D01*
X124358Y-108276D01*
X124308Y-108286D01*
X125048Y-108456D01*
X125848Y-108746D01*
X126698Y-109186D01*
X127698Y-109916D01*
X128458Y-110716D01*
X128968Y-111406D01*
X129328Y-112066D01*
X129568Y-112626D01*
X129808Y-113386D01*
X129908Y-113826D01*
X129988Y-114316D01*
X130048Y-115156D01*
X130008Y-115896D01*
G54D17*
X91318Y-117105D02*
X91038Y-115035D01*
X91068Y-115765D01*
X91178Y-116555D01*
X91468Y-117575D01*
X91678Y-118145D01*
X91948Y-118645D01*
X92298Y-119205D01*
X92888Y-119945D01*
X93578Y-120591D01*
X94368Y-121165D01*
X94908Y-121475D01*
X95828Y-121845D01*
X96528Y-122035D01*
X97328Y-122155D01*
X97968Y-122195D01*
X120178Y-122185D01*
X123638Y-122165D01*
X124348Y-122065D01*
X124298Y-122055D01*
X125038Y-121885D01*
X125838Y-121595D01*
X126688Y-121155D01*
X127688Y-120425D01*
X128448Y-119625D01*
X128958Y-118935D01*
X129318Y-118275D01*
X129558Y-117715D01*
X129798Y-116955D01*
X129898Y-116515D01*
X129978Y-116025D01*
X130038Y-115185D01*
X129998Y-114445D01*
X66006Y-293419D02*
G54D18*
D03*
X66006Y-1547419D02*
G54D18*
D03*
X1250006Y-1547419D02*
G54D18*
D03*
X1250006Y-82419D02*
G54D18*
D03*
M02*
