; Drill file
; Format: 2.4 (00.0000)
M48
INCH
T01C0.0157
T02C0.0191
T03C0.0197
T04C0.0236
T05C0.0276
T06C0.0315
T07C0.0354
T08C0.0354
T09C0.0374
T10C0.063
T11C0.122
%
G05
G90
T01
X006250Y-053410
X007530Y-046440
X007310Y-043910
X011060Y-043430
X013810Y-039540
X017120Y-037820
X021190Y-034630
X022270Y-031630
X020090Y-030770
X020590Y-028340
X021720Y-028770
X022270Y-027040
X023840Y-026660
X023340Y-021980
X020580Y-017940
X019160Y-016940
X022250Y-015480
X022220Y-014850
X022880Y-016940
X024300Y-013010
X022880Y-012480
X030470Y-009510
X030470Y-006980
X038800Y-011320
X040550Y-017740
X037440Y-020980
X035910Y-021130
X035910Y-025540
X036690Y-026210
X034780Y-025540
X030910Y-027260
X030910Y-028850
X029720Y-031410
X031410Y-035160
X028910Y-039570
X028340Y-041350
X022120Y-042190
X021160Y-042820
X022120Y-044040
X022420Y-045480
X023370Y-047380
X018030Y-049480
X017380Y-044040
X016310Y-044070
X009470Y-035790
X006750Y-028410
X008090Y-026230
X008410Y-023440
X016910Y-030600
X019160Y-027690
X029720Y-023990
X029720Y-017880
X040550Y-024010
X038000Y-032160
X040550Y-038210
X031410Y-054910
X029870Y-056440
X028340Y-054660
X023590Y-055440
X014660Y-057430
X007300Y-011710
T02
X004560Y-007230
X002980Y-004410
X005750Y-003800
X002970Y-001040
X016530Y-007160
X046530Y-017540
T03
X031410Y-039570
X040550Y-033350
X040550Y-029980
X040550Y-026930
X047280Y-025160
X039360Y-015510
X040720Y-010380
X039340Y-008480
X041120Y-007510
X039340Y-005710
X023160Y-004910
X017030Y-004410
X015120Y-002980
X017560Y-009150
X011030Y-015910
T04
X049590Y-020820
T05
X018630Y-003260
X018630Y-002260
X034590Y-003100
X035380Y-003100
X038840Y-003100
X039620Y-003100
T06
X005830Y-025910
X005830Y-024910
X005830Y-023910
X005830Y-022910
X005830Y-021910
X005830Y-020910
X005830Y-019910
X013160Y-014730
X013160Y-013730
X016410Y-013730
X016410Y-014730
X013190Y-003260
X013190Y-002260
X008720Y-002260
X008720Y-003260
X030060Y-003260
X030060Y-002260
T07
X011090Y-033600
X012090Y-033600
X012090Y-032600
X012090Y-031600
X012090Y-030600
X011090Y-030600
X011090Y-031600
X011090Y-032600
T08
X005750Y-057910
X005750Y-056910
X005750Y-055910
X005750Y-054910
X005750Y-053910
X005750Y-052910
X005750Y-051910
X005750Y-050910
X005750Y-049910
X005750Y-048910
X005750Y-047910
X005750Y-046910
X005750Y-045910
X005750Y-044910
X005750Y-043910
X005750Y-042910
X005750Y-041910
X005750Y-040910
X005750Y-039910
X005750Y-038910
X005750Y-037910
X018750Y-042910
X018750Y-043910
X018750Y-044910
X018750Y-045910
X018750Y-046910
X018750Y-047910
X018750Y-048910
X018750Y-049910
X018750Y-050910
X018750Y-051910
X018750Y-052910
X018750Y-053910
X018750Y-054910
X018750Y-055910
X019750Y-055910
X019750Y-056910
X019750Y-057910
X018750Y-057910
X017750Y-057910
X016750Y-057910
X015750Y-057910
X015750Y-056910
X016750Y-056910
X017750Y-056910
X018720Y-056910
X019750Y-054910
X019750Y-053910
X019750Y-052910
X019750Y-051910
X019750Y-050910
X019750Y-049910
X019750Y-048910
X019750Y-047910
X019750Y-046910
X019750Y-045910
X019750Y-044910
X019750Y-043910
X019750Y-042910
T09
X006750Y-057910
X006750Y-056910
X006750Y-055910
X006750Y-054910
X006750Y-053910
X006750Y-052910
X006750Y-051910
X006750Y-050910
X006750Y-049910
X006750Y-048910
X006750Y-047910
X006750Y-046910
X006750Y-045910
X006750Y-044910
X006750Y-043910
X006750Y-042910
X006750Y-041910
X006750Y-040910
X006750Y-039910
X006750Y-038910
X006750Y-037910
T10
X048500Y-057660
X048500Y-056010
X050660Y-056010
X050660Y-057660
X050660Y-051160
X050660Y-049510
X048500Y-049510
X048500Y-051160
X048500Y-046660
X048500Y-045010
X050660Y-045010
X050660Y-046660
X050660Y-040660
X050660Y-039010
X048500Y-039010
X048500Y-040660
X048500Y-036160
X048500Y-034510
X050660Y-034510
X050660Y-036160
X050660Y-030410
X050660Y-028760
X048500Y-028760
X048500Y-030410
X048500Y-025910
X048500Y-024260
X050660Y-024260
X050660Y-025910
X050660Y-020230
X050660Y-018570
X050660Y-016910
X050660Y-015260
X048500Y-015260
X048500Y-016910
X048500Y-018570
X048500Y-020230
X048530Y-012480
X048530Y-010820
X048530Y-009160
X048530Y-007510
X050690Y-007510
X050690Y-009160
X050690Y-010820
X050690Y-012480
T11
X002600Y-060920
X049210Y-060920
X049210Y-003240
X002600Y-011550
M30
