%FSLAX34Y34*%
%MOMM*%
%LNCOPPER_BOTTOM*%
G71*
G01*
%ADD10C, 1.00*%
%ADD11C, 0.70*%
%ADD12C, 1.02*%
%ADD13C, 1.10*%
%ADD14C, 1.60*%
%ADD15C, 1.60*%
%ADD16C, 1.50*%
%ADD17C, 1.50*%
%ADD18C, 1.60*%
%ADD19C, 1.50*%
%ADD20C, 2.90*%
%ADD21C, 0.60*%
%ADD22C, 0.50*%
%ADD23C, 0.33*%
%ADD24C, 0.51*%
%ADD25C, 5.00*%
%LPD*%
X588168Y-124806D02*
G54D10*
D03*
X999728Y-393888D02*
G54D10*
D03*
X1029890Y-450641D02*
G54D11*
D03*
X999331Y-145047D02*
G54D10*
D03*
X115887Y-183544D02*
G54D12*
D03*
X1029890Y-970547D02*
G54D11*
D03*
X999331Y-215294D02*
G54D10*
D03*
X1029890Y-684004D02*
G54D10*
D03*
X1029890Y-761394D02*
G54D10*
D03*
X1029890Y-847119D02*
G54D10*
D03*
X985440Y-287525D02*
G54D11*
D03*
X1029890Y-609788D02*
G54D11*
D03*
X432594Y-112106D02*
G54D10*
D03*
X280194Y-404206D02*
G54D10*
D03*
X446087Y-232360D02*
G54D10*
D03*
X1034256Y-263713D02*
G54D10*
D03*
X1044575Y-190688D02*
G54D10*
D03*
X565150Y-393094D02*
G54D11*
D03*
X551656Y-730834D02*
G54D11*
D03*
X350837Y-1004282D02*
G54D11*
D03*
X185737Y-1115406D02*
G54D11*
D03*
X205581Y-666144D02*
G54D11*
D03*
X1259681Y-528825D02*
G54D13*
D03*
X564356Y-377219D02*
G54D11*
D03*
X280987Y-1103104D02*
G54D11*
D03*
X538162Y-879663D02*
G54D11*
D03*
X171450Y-721706D02*
G54D11*
D03*
X1181894Y-445482D02*
G54D12*
D03*
X486568Y-430400D02*
G54D11*
D03*
X486568Y-703450D02*
G54D11*
D03*
X617140Y-330388D02*
G54D11*
D03*
X605631Y-677256D02*
G54D11*
D03*
X191294Y-1179700D02*
G54D11*
D03*
X1200944Y-639156D02*
G54D10*
D03*
X171450Y-1471006D02*
G54D14*
D03*
X599281Y-1408300D02*
G54D11*
D03*
X719931Y-1050319D02*
G54D11*
D03*
X950912Y-532794D02*
G54D11*
D03*
X434975Y-960625D02*
G54D11*
D03*
X592931Y-558194D02*
G54D11*
D03*
X593725Y-1203513D02*
G54D11*
D03*
X414337Y-1119375D02*
G54D11*
D03*
X213518Y-595500D02*
G54D11*
D03*
X441325Y-1118582D02*
G54D11*
D03*
X523081Y-719722D02*
G54D11*
D03*
X522684Y-455800D02*
G54D11*
D03*
X537368Y-1087625D02*
G54D11*
D03*
X581025Y-430400D02*
G54D11*
D03*
X581025Y-316894D02*
G54D11*
D03*
X758825Y-1433700D02*
G54D11*
D03*
X457994Y-1256694D02*
G54D11*
D03*
X569515Y-1155094D02*
G54D11*
D03*
X372268Y-1458704D02*
G54D11*
D03*
X158750Y-1356706D02*
G54D11*
D03*
X185340Y-297447D02*
G54D11*
D03*
X384175Y-75594D02*
G54D10*
D03*
X510381Y-781634D02*
G54D11*
D03*
X565547Y-803463D02*
G54D11*
D03*
X565547Y-686782D02*
G54D11*
D03*
X561975Y-1118582D02*
G54D11*
D03*
X561975Y-1071750D02*
G54D11*
D03*
X419894Y-181956D02*
G54D12*
D03*
X734218Y-1005075D02*
G54D11*
D03*
X429418Y-777269D02*
G54D11*
D03*
X754856Y-797906D02*
G54D11*
D03*
X785018Y-732819D02*
G54D11*
D03*
X797718Y-893156D02*
G54D11*
D03*
X797718Y-1005075D02*
G54D10*
D03*
X754856Y-454213D02*
G54D11*
D03*
X785018Y-692338D02*
G54D11*
D03*
X773906Y-241488D02*
G54D11*
D03*
X773906Y-177194D02*
G54D11*
D03*
X754856Y-609391D02*
G54D11*
D03*
X797718Y-1394806D02*
G54D11*
D03*
X719931Y-1388456D02*
G54D11*
D03*
X965200Y-816956D02*
G54D11*
D03*
X912018Y-648682D02*
G54D11*
D03*
X912018Y-536763D02*
G54D11*
D03*
X883444Y-648682D02*
G54D11*
D03*
X931862Y-665747D02*
G54D11*
D03*
X240506Y-909032D02*
G54D11*
D03*
G36*
X326962Y-74738D02*
X342962Y-74738D01*
X342962Y-90738D01*
X326962Y-90738D01*
X326962Y-74738D01*
G37*
X334962Y-57338D02*
G54D15*
D03*
X221456Y-57338D02*
G54D15*
D03*
G36*
X213456Y-74738D02*
X229456Y-74738D01*
X229456Y-90738D01*
X213456Y-90738D01*
X213456Y-74738D01*
G37*
G36*
X408718Y-366044D02*
X424718Y-366044D01*
X424718Y-382044D01*
X408718Y-382044D01*
X408718Y-366044D01*
G37*
X416718Y-348644D02*
G54D15*
D03*
X334168Y-348644D02*
G54D15*
D03*
G36*
X326168Y-366044D02*
X342168Y-366044D01*
X342168Y-382044D01*
X326168Y-382044D01*
X326168Y-366044D01*
G37*
G36*
X465575Y-75238D02*
X480575Y-75238D01*
X480575Y-90238D01*
X465575Y-90238D01*
X465575Y-75238D01*
G37*
X473075Y-57338D02*
G54D16*
D03*
G36*
X756087Y-75238D02*
X771087Y-75238D01*
X771087Y-90238D01*
X756087Y-90238D01*
X756087Y-75238D01*
G37*
X763587Y-57338D02*
G54D17*
D03*
X146050Y-963006D02*
G54D18*
D03*
X146050Y-988406D02*
G54D18*
D03*
X146050Y-1013806D02*
G54D18*
D03*
X146050Y-1039206D02*
G54D18*
D03*
X146050Y-1064606D02*
G54D18*
D03*
X146050Y-1090006D02*
G54D18*
D03*
X146050Y-1115406D02*
G54D18*
D03*
X146050Y-1140806D02*
G54D18*
D03*
X146050Y-1166206D02*
G54D18*
D03*
X146050Y-1191606D02*
G54D18*
D03*
X146050Y-1217006D02*
G54D18*
D03*
X146050Y-1242406D02*
G54D18*
D03*
X146050Y-1267806D02*
G54D18*
D03*
X146050Y-1293206D02*
G54D18*
D03*
X146050Y-1318606D02*
G54D18*
D03*
X146050Y-1344006D02*
G54D18*
D03*
X146050Y-1369406D02*
G54D18*
D03*
X146050Y-1394806D02*
G54D18*
D03*
X146050Y-1420206D02*
G54D18*
D03*
X146050Y-1445606D02*
G54D18*
D03*
X146050Y-1471006D02*
G54D18*
D03*
X171450Y-1445606D02*
G54D14*
D03*
X171450Y-1420206D02*
G54D14*
D03*
X171450Y-1394806D02*
G54D14*
D03*
X171450Y-1369406D02*
G54D14*
D03*
X171450Y-1344006D02*
G54D14*
D03*
X171450Y-1318606D02*
G54D14*
D03*
X171450Y-1293206D02*
G54D14*
D03*
X171450Y-1267806D02*
G54D14*
D03*
X171450Y-1242406D02*
G54D14*
D03*
X171450Y-1217006D02*
G54D14*
D03*
X171450Y-1191606D02*
G54D14*
D03*
X171450Y-1166206D02*
G54D14*
D03*
X171450Y-1140806D02*
G54D14*
D03*
X171450Y-1115406D02*
G54D14*
D03*
X171450Y-1090006D02*
G54D14*
D03*
X171450Y-1064606D02*
G54D14*
D03*
X171450Y-1039206D02*
G54D14*
D03*
X171450Y-1013806D02*
G54D14*
D03*
X171450Y-988406D02*
G54D14*
D03*
X171450Y-963006D02*
G54D14*
D03*
X476250Y-1090006D02*
G54D18*
D03*
X476250Y-1115406D02*
G54D18*
D03*
X476250Y-1140806D02*
G54D18*
D03*
X476250Y-1166206D02*
G54D18*
D03*
X476250Y-1191606D02*
G54D18*
D03*
X476250Y-1217006D02*
G54D18*
D03*
X476250Y-1242406D02*
G54D18*
D03*
X476250Y-1267806D02*
G54D18*
D03*
X476250Y-1293206D02*
G54D18*
D03*
X476250Y-1318606D02*
G54D18*
D03*
X476250Y-1344006D02*
G54D18*
D03*
X476250Y-1369406D02*
G54D18*
D03*
X476250Y-1394806D02*
G54D18*
D03*
X476250Y-1420206D02*
G54D18*
D03*
X475456Y-1445606D02*
G54D18*
D03*
X476250Y-1471006D02*
G54D18*
D03*
X501650Y-1471006D02*
G54D18*
D03*
X501650Y-1445606D02*
G54D18*
D03*
X501650Y-1420206D02*
G54D18*
D03*
X501650Y-1394806D02*
G54D18*
D03*
X501650Y-1369406D02*
G54D18*
D03*
X501650Y-1344006D02*
G54D18*
D03*
X501650Y-1318606D02*
G54D18*
D03*
X501650Y-1293206D02*
G54D18*
D03*
X501650Y-1267806D02*
G54D18*
D03*
X501650Y-1242406D02*
G54D18*
D03*
X501650Y-1217006D02*
G54D18*
D03*
X501650Y-1191606D02*
G54D18*
D03*
X501650Y-1166206D02*
G54D18*
D03*
X501650Y-1140806D02*
G54D18*
D03*
X501650Y-1115406D02*
G54D18*
D03*
X501650Y-1090006D02*
G54D18*
D03*
X400050Y-1471006D02*
G54D18*
D03*
X425450Y-1471006D02*
G54D18*
D03*
X450850Y-1471006D02*
G54D18*
D03*
X450850Y-1445606D02*
G54D18*
D03*
X425450Y-1445606D02*
G54D18*
D03*
X400050Y-1445606D02*
G54D18*
D03*
G36*
X299681Y-769769D02*
X314681Y-769769D01*
X314681Y-784769D01*
X299681Y-784769D01*
X299681Y-769769D01*
G37*
X307181Y-802669D02*
G54D19*
D03*
X307181Y-828069D02*
G54D19*
D03*
X307181Y-853469D02*
G54D19*
D03*
X281781Y-777269D02*
G54D19*
D03*
X281781Y-802669D02*
G54D19*
D03*
X281781Y-828069D02*
G54D19*
D03*
X281781Y-853469D02*
G54D19*
D03*
G36*
X1272962Y-176188D02*
X1301962Y-176188D01*
X1301962Y-205188D01*
X1272962Y-205188D01*
X1272962Y-176188D01*
G37*
X1287462Y-232756D02*
G54D20*
D03*
X1287462Y-274825D02*
G54D20*
D03*
X1287462Y-316894D02*
G54D20*
D03*
X1232694Y-190688D02*
G54D20*
D03*
X1232694Y-232756D02*
G54D20*
D03*
X1232694Y-274825D02*
G54D20*
D03*
X1232694Y-316894D02*
G54D20*
D03*
G36*
X1272168Y-373038D02*
X1301168Y-373038D01*
X1301168Y-402038D01*
X1272168Y-402038D01*
X1272168Y-373038D01*
G37*
X1286668Y-429606D02*
G54D20*
D03*
X1286668Y-471675D02*
G54D20*
D03*
X1286668Y-513744D02*
G54D20*
D03*
X1231900Y-387538D02*
G54D20*
D03*
X1231900Y-429606D02*
G54D20*
D03*
X1231900Y-471675D02*
G54D20*
D03*
X1231900Y-513744D02*
G54D20*
D03*
G36*
X979131Y-71269D02*
X994131Y-71269D01*
X994131Y-86269D01*
X979131Y-86269D01*
X979131Y-71269D01*
G37*
X1006475Y-78769D02*
G54D16*
D03*
G36*
X871181Y-71269D02*
X886181Y-71269D01*
X886181Y-86269D01*
X871181Y-86269D01*
X871181Y-71269D01*
G37*
X898525Y-78769D02*
G54D16*
D03*
G36*
X1272168Y-601638D02*
X1301168Y-601638D01*
X1301168Y-630638D01*
X1272168Y-630638D01*
X1272168Y-601638D01*
G37*
X1286668Y-658206D02*
G54D20*
D03*
X1231900Y-616138D02*
G54D20*
D03*
X1231900Y-658206D02*
G54D20*
D03*
G36*
X1272168Y-715938D02*
X1301168Y-715938D01*
X1301168Y-744938D01*
X1272168Y-744938D01*
X1272168Y-715938D01*
G37*
X1286668Y-772506D02*
G54D20*
D03*
X1231900Y-730438D02*
G54D20*
D03*
X1231900Y-772506D02*
G54D20*
D03*
G36*
X1272168Y-861988D02*
X1301168Y-861988D01*
X1301168Y-890988D01*
X1272168Y-890988D01*
X1272168Y-861988D01*
G37*
X1286668Y-918556D02*
G54D20*
D03*
X1231900Y-876488D02*
G54D20*
D03*
X1231900Y-918556D02*
G54D20*
D03*
G36*
X1272168Y-976288D02*
X1301168Y-976288D01*
X1301168Y-1005288D01*
X1272168Y-1005288D01*
X1272168Y-976288D01*
G37*
X1286668Y-1032856D02*
G54D20*
D03*
X1231900Y-990788D02*
G54D20*
D03*
X1231900Y-1032856D02*
G54D20*
D03*
G36*
X1272168Y-1408088D02*
X1301168Y-1408088D01*
X1301168Y-1437088D01*
X1272168Y-1437088D01*
X1272168Y-1408088D01*
G37*
X1286668Y-1464656D02*
G54D20*
D03*
X1231900Y-1422588D02*
G54D20*
D03*
X1231900Y-1464656D02*
G54D20*
D03*
G36*
X1272168Y-1128688D02*
X1301168Y-1128688D01*
X1301168Y-1157688D01*
X1272168Y-1157688D01*
X1272168Y-1128688D01*
G37*
X1286668Y-1185256D02*
G54D20*
D03*
X1231900Y-1143188D02*
G54D20*
D03*
X1231900Y-1185256D02*
G54D20*
D03*
G36*
X1272168Y-1242988D02*
X1301168Y-1242988D01*
X1301168Y-1271988D01*
X1272168Y-1271988D01*
X1272168Y-1242988D01*
G37*
X1286668Y-1299556D02*
G54D20*
D03*
X1231900Y-1257488D02*
G54D20*
D03*
X1231900Y-1299556D02*
G54D20*
D03*
G36*
X156034Y-513806D02*
X140034Y-513806D01*
X140034Y-497806D01*
X156034Y-497806D01*
X156034Y-513806D01*
G37*
X148034Y-531206D02*
G54D15*
D03*
X148034Y-556606D02*
G54D15*
D03*
X148034Y-582006D02*
G54D15*
D03*
X148034Y-607406D02*
G54D15*
D03*
X148034Y-632806D02*
G54D15*
D03*
X148034Y-658206D02*
G54D15*
D03*
G54D21*
X136089Y-86673D02*
X146050Y-96628D01*
G54D22*
X334962Y-82738D02*
X351631Y-99406D01*
X562768Y-99406D01*
X588168Y-124806D01*
G54D22*
X999331Y-145047D02*
X999331Y-215294D01*
X999331Y-273635D01*
X985440Y-287525D01*
X985440Y-379600D01*
X999728Y-393888D01*
G54D22*
X1029890Y-451038D02*
X1029890Y-609788D01*
X1029890Y-684004D01*
X1029893Y-761399D01*
X1029890Y-847119D01*
X1029890Y-970547D01*
G54D22*
X281781Y-853469D02*
X276225Y-853469D01*
X265112Y-842356D01*
X265112Y-811797D01*
X274240Y-802669D01*
X281781Y-802669D01*
X294084Y-789969D01*
X294084Y-124806D01*
X306784Y-112106D01*
X432594Y-112106D01*
G54D22*
X171450Y-1013806D02*
X194865Y-990391D01*
X194865Y-581213D01*
X280194Y-495885D01*
X280194Y-404206D01*
G54D22*
X416718Y-374044D02*
X446087Y-344675D01*
X446087Y-232360D01*
G54D22*
X1034256Y-263713D02*
X1043781Y-254188D01*
X1247775Y-254188D01*
X1260475Y-266888D01*
X1260475Y-289906D01*
X1287462Y-316894D01*
G54D22*
X1232297Y-190688D02*
X1044474Y-190525D01*
G54D23*
X185737Y-1115406D02*
X171450Y-1115406D01*
G54D23*
X350837Y-1004282D02*
X545089Y-1004282D01*
X551446Y-997924D01*
X551446Y-728684D01*
X551446Y-406740D01*
X564975Y-393253D01*
G54D23*
X205581Y-666144D02*
X205581Y-1131786D01*
X171236Y-1166130D01*
G54D22*
X1259681Y-528825D02*
X1259686Y-539140D01*
X1286674Y-566128D01*
X1286674Y-616134D01*
G54D23*
X280987Y-1103104D02*
X280987Y-1030475D01*
X329406Y-982056D01*
X533003Y-982056D01*
X538162Y-976500D01*
X538162Y-879663D01*
X538559Y-392300D01*
X553640Y-377219D01*
X564356Y-377219D01*
G54D23*
X171450Y-721706D02*
X159147Y-734010D01*
X159147Y-1152713D01*
X145653Y-1166206D01*
G54D22*
X1181894Y-445482D02*
X1181894Y-566132D01*
X1231900Y-616138D01*
G54D23*
X486568Y-703450D02*
X486574Y-430399D01*
G54D23*
X605631Y-677256D02*
X605631Y-341897D01*
X617140Y-330388D01*
G54D23*
X191690Y-1179304D02*
X158223Y-1179304D01*
X145916Y-1191610D01*
G54D22*
X1200944Y-639156D02*
X1200941Y-699479D01*
X1231897Y-730435D01*
G54D24*
X599281Y-1407904D02*
X661590Y-1407904D01*
X667147Y-1413856D01*
X997744Y-1413856D01*
X1009253Y-1402347D01*
X1009253Y-429606D01*
X1164034Y-274825D01*
X1232694Y-274825D01*
G54D23*
X148034Y-607406D02*
X125809Y-607406D01*
X119062Y-614154D01*
X119062Y-1425763D01*
X126206Y-1432906D01*
X158750Y-1432906D01*
X171450Y-1445606D01*
G54D23*
X950912Y-532794D02*
X950515Y-1045160D01*
X945356Y-1050319D01*
X719931Y-1050319D01*
G54D23*
X434975Y-961022D02*
X332740Y-961022D01*
X256575Y-1037308D01*
X256540Y-1260862D01*
X249433Y-1267968D01*
X171398Y-1267968D01*
G54D23*
X593725Y-1203513D02*
X592931Y-558194D01*
G54D23*
X414337Y-1118978D02*
X348059Y-1185256D01*
X348059Y-1274156D01*
X341709Y-1280506D01*
X158750Y-1280506D01*
X146050Y-1267806D01*
G54D23*
X213518Y-595500D02*
X213518Y-632013D01*
X220662Y-639156D01*
X220662Y-1192797D01*
X171053Y-1242406D01*
G54D23*
X441325Y-1118582D02*
X361650Y-1198256D01*
X361650Y-1286844D01*
X355046Y-1293448D01*
X171399Y-1293448D01*
G54D23*
X522684Y-455800D02*
X523081Y-718532D01*
X523081Y-926494D01*
X516731Y-932844D01*
X342106Y-932844D01*
X239315Y-1036032D01*
X239315Y-1248756D01*
X232965Y-1255106D01*
X158750Y-1255106D01*
X146050Y-1242406D01*
G54D23*
X536972Y-1088022D02*
X536972Y-1222960D01*
X529828Y-1229706D01*
X454422Y-1229706D01*
X377825Y-1306304D01*
X159147Y-1306304D01*
X146050Y-1293206D01*
G54D23*
X581025Y-316894D02*
X581025Y-430400D01*
X581025Y-1480928D01*
X572294Y-1489263D01*
X152797Y-1489263D01*
X146050Y-1482516D01*
X146050Y-1471006D01*
G54D23*
X1231900Y-471675D02*
X1183300Y-423075D01*
X1143700Y-423075D01*
X1137100Y-429675D01*
X1137100Y-1425099D01*
X1128950Y-1433248D01*
X758768Y-1433248D01*
G54D23*
X148034Y-582006D02*
X118268Y-582006D01*
X110331Y-589944D01*
X110331Y-1437669D01*
X118268Y-1445606D01*
X145653Y-1445606D01*
G54D23*
X457994Y-1256297D02*
X395739Y-1318552D01*
X171248Y-1318552D01*
G54D23*
X569515Y-1155094D02*
X569515Y-1323766D01*
X561578Y-1331704D01*
X159147Y-1331704D01*
X146050Y-1318606D01*
G54D23*
X171450Y-1369406D02*
X364728Y-1369406D01*
X372268Y-1376947D01*
X372268Y-1458704D01*
G54D23*
X158750Y-1357104D02*
X158750Y-1382098D01*
X171454Y-1394802D01*
G54D23*
X185340Y-297447D02*
X185340Y-674082D01*
X128587Y-730834D01*
X128587Y-1377344D01*
X146050Y-1394806D01*
G54D22*
X1006475Y-78582D02*
X1100931Y-78582D01*
X1183878Y-161528D01*
X1305718Y-161528D01*
X1316831Y-172641D01*
X1316831Y-330994D01*
X1304131Y-343297D01*
X1243409Y-343297D01*
X1232694Y-332582D01*
X1232694Y-316706D01*
G54D22*
X763587Y-57338D02*
X775494Y-57338D01*
X781447Y-63291D01*
X781447Y-169653D01*
X773906Y-177194D01*
X773906Y-241488D01*
X754856Y-260538D01*
X754856Y-454213D01*
X754856Y-608994D01*
X754856Y-662175D01*
X785018Y-692338D01*
X785018Y-732819D01*
X754856Y-762982D01*
X754856Y-798700D01*
X754856Y-850294D01*
X797718Y-893156D01*
X797718Y-1005075D01*
G54D22*
X1259284Y-343485D02*
X1259284Y-506600D01*
X1252140Y-513744D01*
X1231900Y-513744D01*
X1231900Y-560575D01*
X1259681Y-588356D01*
X1259681Y-658206D01*
X1286668Y-658206D01*
G54D22*
X334962Y-57338D02*
X379412Y-56941D01*
X384175Y-61703D01*
X384175Y-75594D01*
G54D22*
X148034Y-632806D02*
X157559Y-632806D01*
X164306Y-626060D01*
X164306Y-522078D01*
X148034Y-505806D01*
G54D22*
X510381Y-781634D02*
X506015Y-777269D01*
X429418Y-777269D01*
X307181Y-777269D01*
G54D23*
X565547Y-686782D02*
X565547Y-803463D01*
G54D23*
X561975Y-1071354D02*
X561975Y-1118396D01*
G54D22*
X416718Y-348644D02*
X426640Y-338722D01*
X426640Y-188703D01*
X419894Y-181956D01*
G54D22*
X1286668Y-1032856D02*
X1259681Y-1032856D01*
X1259681Y-1173747D01*
X1271587Y-1185256D01*
X1286668Y-1185256D01*
X1322387Y-1221372D01*
X1322387Y-1290032D01*
X1312465Y-1299556D01*
X1286668Y-1299556D01*
X1312862Y-1299556D01*
X1323181Y-1310272D01*
X1323181Y-1450369D01*
X1308894Y-1464656D01*
X1286668Y-1464656D01*
G54D22*
X1259681Y-658206D02*
X1259681Y-763378D01*
X1268809Y-772506D01*
X1286668Y-772506D01*
X1309687Y-772506D01*
X1320800Y-783619D01*
X1320800Y-909428D01*
X1311275Y-918556D01*
X1286668Y-918556D01*
X1259681Y-945941D01*
X1259681Y-1032856D01*
G54D23*
X719534Y-1388456D02*
X756053Y-1388456D01*
X762403Y-1394806D01*
X797989Y-1394806D01*
G54D23*
X965200Y-816560D02*
X965597Y-99803D01*
X986631Y-78769D01*
G54D23*
X912018Y-536763D02*
X912018Y-648682D01*
G54D23*
X931862Y-665747D02*
X900509Y-665747D01*
X883444Y-648682D01*
G54D23*
X240506Y-909032D02*
X240506Y-818544D01*
X281781Y-777269D01*
G54D23*
X734218Y-1005075D02*
X797718Y-1005075D01*
G54D21*
X73606Y-86419D02*
X75676Y-86699D01*
X74946Y-86669D01*
X74156Y-86559D01*
X73136Y-86269D01*
X72566Y-86059D01*
X72066Y-85789D01*
X71506Y-85439D01*
X70766Y-84849D01*
X70120Y-84160D01*
X69546Y-83369D01*
X69236Y-82829D01*
X68866Y-81909D01*
X68676Y-81209D01*
X68556Y-80409D01*
X68516Y-79769D01*
X68526Y-57559D01*
X68546Y-54099D01*
X68646Y-53389D01*
X68656Y-53439D01*
X68826Y-52699D01*
X69116Y-51899D01*
X69556Y-51049D01*
X70286Y-50049D01*
X71086Y-49289D01*
X71776Y-48779D01*
X72436Y-48419D01*
X72996Y-48179D01*
X73756Y-47939D01*
X74196Y-47839D01*
X74686Y-47759D01*
X75526Y-47699D01*
X76266Y-47739D01*
G54D21*
X77475Y-86429D02*
X75405Y-86709D01*
X76135Y-86679D01*
X76925Y-86569D01*
X77945Y-86279D01*
X78515Y-86069D01*
X79015Y-85799D01*
X79575Y-85449D01*
X80315Y-84859D01*
X80960Y-84170D01*
X81535Y-83379D01*
X81845Y-82839D01*
X82215Y-81919D01*
X82405Y-81219D01*
X82525Y-80419D01*
X82565Y-79779D01*
X82555Y-57569D01*
X82535Y-54109D01*
X82435Y-53399D01*
X82425Y-53449D01*
X82255Y-52709D01*
X81965Y-51909D01*
X81525Y-51059D01*
X80795Y-50059D01*
X79995Y-49299D01*
X79305Y-48789D01*
X78645Y-48429D01*
X78085Y-48189D01*
X77325Y-47949D01*
X76885Y-47849D01*
X76395Y-47769D01*
X75555Y-47709D01*
X74815Y-47749D01*
G54D21*
X133606Y-86419D02*
X135676Y-86699D01*
X134946Y-86669D01*
X134156Y-86559D01*
X133136Y-86269D01*
X132566Y-86059D01*
X132066Y-85789D01*
X131506Y-85439D01*
X130766Y-84849D01*
X130120Y-84160D01*
X129546Y-83369D01*
X129236Y-82829D01*
X128866Y-81909D01*
X128676Y-81209D01*
X128556Y-80409D01*
X128516Y-79769D01*
X128526Y-57559D01*
X128546Y-54099D01*
X128646Y-53389D01*
X128656Y-53439D01*
X128826Y-52699D01*
X129116Y-51899D01*
X129556Y-51049D01*
X130286Y-50049D01*
X131086Y-49289D01*
X131776Y-48779D01*
X132436Y-48419D01*
X132996Y-48179D01*
X133756Y-47939D01*
X134196Y-47839D01*
X134686Y-47759D01*
X135526Y-47699D01*
X136266Y-47739D01*
G54D21*
X137475Y-86429D02*
X135405Y-86709D01*
X136135Y-86679D01*
X136925Y-86569D01*
X137945Y-86279D01*
X138515Y-86069D01*
X139015Y-85799D01*
X139575Y-85449D01*
X140315Y-84859D01*
X140960Y-84170D01*
X141535Y-83379D01*
X141845Y-82839D01*
X142215Y-81919D01*
X142405Y-81219D01*
X142525Y-80419D01*
X142565Y-79779D01*
X142555Y-57569D01*
X142535Y-54109D01*
X142435Y-53399D01*
X142425Y-53449D01*
X142255Y-52709D01*
X141965Y-51909D01*
X141525Y-51059D01*
X140795Y-50059D01*
X139995Y-49299D01*
X139305Y-48789D01*
X138645Y-48429D01*
X138085Y-48189D01*
X137325Y-47949D01*
X136885Y-47849D01*
X136395Y-47769D01*
X135555Y-47709D01*
X134815Y-47749D01*
G54D21*
X91328Y-113236D02*
X91048Y-115306D01*
X91078Y-114576D01*
X91188Y-113786D01*
X91478Y-112766D01*
X91688Y-112196D01*
X91958Y-111696D01*
X92308Y-111136D01*
X92898Y-110396D01*
X93588Y-109750D01*
X94378Y-109176D01*
X94918Y-108866D01*
X95838Y-108496D01*
X96538Y-108306D01*
X97338Y-108186D01*
X97978Y-108146D01*
X120188Y-108156D01*
X123648Y-108176D01*
X124358Y-108276D01*
X124308Y-108286D01*
X125048Y-108456D01*
X125848Y-108746D01*
X126698Y-109186D01*
X127698Y-109916D01*
X128458Y-110716D01*
X128968Y-111406D01*
X129328Y-112066D01*
X129568Y-112626D01*
X129808Y-113386D01*
X129908Y-113826D01*
X129988Y-114316D01*
X130048Y-115156D01*
X130008Y-115896D01*
G54D21*
X91318Y-117105D02*
X91038Y-115035D01*
X91068Y-115765D01*
X91178Y-116555D01*
X91468Y-117575D01*
X91678Y-118145D01*
X91948Y-118645D01*
X92298Y-119205D01*
X92888Y-119945D01*
X93578Y-120591D01*
X94368Y-121165D01*
X94908Y-121475D01*
X95828Y-121845D01*
X96528Y-122035D01*
X97328Y-122155D01*
X97968Y-122195D01*
X120178Y-122185D01*
X123638Y-122165D01*
X124348Y-122065D01*
X124298Y-122055D01*
X125038Y-121885D01*
X125838Y-121595D01*
X126688Y-121155D01*
X127688Y-120425D01*
X128448Y-119625D01*
X128958Y-118935D01*
X129318Y-118275D01*
X129558Y-117715D01*
X129798Y-116955D01*
X129898Y-116515D01*
X129978Y-116025D01*
X130038Y-115185D01*
X129998Y-114445D01*
X146050Y-96628D02*
G54D12*
D03*
X75803Y-112106D02*
G54D12*
D03*
X75406Y-26382D02*
G54D12*
D03*
G54D21*
X75406Y-26419D02*
X75406Y-47819D01*
G54D21*
X75803Y-112106D02*
X75803Y-86706D01*
G54D22*
X148034Y-658206D02*
X165100Y-658206D01*
X175418Y-647888D01*
X175418Y-394285D01*
X163115Y-381982D01*
X124618Y-381982D01*
X115887Y-373250D01*
X115887Y-183544D01*
X115887Y-162906D01*
X146050Y-132744D01*
X146050Y-96628D01*
X66006Y-293419D02*
G54D25*
D03*
X66006Y-1547419D02*
G54D25*
D03*
X1250006Y-1547419D02*
G54D25*
D03*
X1250006Y-82419D02*
G54D25*
D03*
M02*
