%FSLAX34Y34*%
%MOMM*%
%LNSMDMASK_TOP*%
G71*
G01*
%ADD10R, 3.15X2.20*%
%ADD11R, 3.10X5.60*%
%ADD12R, 2.30X1.10*%
%ADD13R, 3.00X1.00*%
%ADD14R, 9.00X10.60*%
%ADD15R, 1.00X1.80*%
%ADD16R, 1.80X1.00*%
%ADD17R, 3.00X1.10*%
%ADD18R, 1.00X0.60*%
%ADD19R, 1.70X1.00*%
%ADD20R, 1.60X3.30*%
%LPD*%
X384175Y-252600D02*
G54D10*
D03*
X384175Y-181956D02*
G54D10*
D03*
X149225Y-376425D02*
G54D11*
D03*
X250031Y-376425D02*
G54D11*
D03*
X202406Y-788382D02*
G54D12*
D03*
X145256Y-788382D02*
G54D12*
D03*
X145256Y-751869D02*
G54D12*
D03*
X202406Y-751869D02*
G54D12*
D03*
X202406Y-874106D02*
G54D12*
D03*
X145256Y-874106D02*
G54D12*
D03*
X145256Y-837594D02*
G54D12*
D03*
X202406Y-837594D02*
G54D12*
D03*
X148431Y-183544D02*
G54D13*
D03*
X148431Y-200213D02*
G54D13*
D03*
X148431Y-216882D02*
G54D13*
D03*
X148431Y-234344D02*
G54D13*
D03*
X148431Y-251013D02*
G54D13*
D03*
X247650Y-216882D02*
G54D14*
D03*
X645715Y-163700D02*
G54D15*
D03*
X616789Y-163705D02*
G54D15*
D03*
X734615Y-163700D02*
G54D15*
D03*
X705689Y-163705D02*
G54D15*
D03*
X734615Y-231963D02*
G54D15*
D03*
X705689Y-231968D02*
G54D15*
D03*
X645715Y-231963D02*
G54D15*
D03*
X616789Y-231968D02*
G54D15*
D03*
X548084Y-231963D02*
G54D15*
D03*
X519158Y-231968D02*
G54D15*
D03*
X548084Y-301813D02*
G54D15*
D03*
X519158Y-301818D02*
G54D15*
D03*
X646112Y-301416D02*
G54D15*
D03*
X617186Y-301421D02*
G54D15*
D03*
X734615Y-301019D02*
G54D15*
D03*
X705689Y-301024D02*
G54D15*
D03*
X548084Y-430400D02*
G54D15*
D03*
X519158Y-430405D02*
G54D15*
D03*
X647303Y-430400D02*
G54D15*
D03*
X618377Y-430405D02*
G54D15*
D03*
X734615Y-430400D02*
G54D15*
D03*
X705689Y-430405D02*
G54D15*
D03*
X646906Y-512156D02*
G54D15*
D03*
X617980Y-512161D02*
G54D15*
D03*
X734615Y-512156D02*
G54D15*
D03*
X705689Y-512161D02*
G54D15*
D03*
X912018Y-430400D02*
G54D15*
D03*
X883092Y-430405D02*
G54D15*
D03*
X999728Y-430400D02*
G54D15*
D03*
X970802Y-430405D02*
G54D15*
D03*
X999728Y-511760D02*
G54D15*
D03*
X970802Y-511764D02*
G54D15*
D03*
X911622Y-511760D02*
G54D15*
D03*
X882696Y-511764D02*
G54D15*
D03*
X911622Y-608994D02*
G54D15*
D03*
X882696Y-608999D02*
G54D15*
D03*
X999331Y-609788D02*
G54D15*
D03*
X970405Y-609792D02*
G54D15*
D03*
X999728Y-665747D02*
G54D15*
D03*
X970802Y-665752D02*
G54D15*
D03*
X911622Y-665747D02*
G54D15*
D03*
X882696Y-665752D02*
G54D15*
D03*
X912018Y-723294D02*
G54D15*
D03*
X883092Y-723299D02*
G54D15*
D03*
X911622Y-780047D02*
G54D15*
D03*
X882696Y-780052D02*
G54D15*
D03*
X999331Y-723294D02*
G54D15*
D03*
X970405Y-723299D02*
G54D15*
D03*
X999331Y-780047D02*
G54D15*
D03*
X970405Y-780052D02*
G54D15*
D03*
X912018Y-869344D02*
G54D15*
D03*
X883092Y-869349D02*
G54D15*
D03*
X999331Y-869344D02*
G54D15*
D03*
X970405Y-869349D02*
G54D15*
D03*
X999331Y-925700D02*
G54D15*
D03*
X970405Y-925705D02*
G54D15*
D03*
X999728Y-983644D02*
G54D15*
D03*
X970802Y-983649D02*
G54D15*
D03*
X999331Y-1040000D02*
G54D15*
D03*
X970405Y-1040005D02*
G54D15*
D03*
X912018Y-983644D02*
G54D15*
D03*
X883092Y-983649D02*
G54D15*
D03*
X912018Y-1040000D02*
G54D15*
D03*
X883092Y-1040005D02*
G54D15*
D03*
X912018Y-1139219D02*
G54D15*
D03*
X883092Y-1139224D02*
G54D15*
D03*
X999331Y-1139616D02*
G54D15*
D03*
X970405Y-1139620D02*
G54D15*
D03*
X912018Y-1189225D02*
G54D15*
D03*
X883092Y-1189230D02*
G54D15*
D03*
X999728Y-1190019D02*
G54D15*
D03*
X970802Y-1190024D02*
G54D15*
D03*
X912018Y-1250344D02*
G54D15*
D03*
X883092Y-1250349D02*
G54D15*
D03*
X999331Y-1250344D02*
G54D15*
D03*
X970405Y-1250349D02*
G54D15*
D03*
X999331Y-1305906D02*
G54D15*
D03*
X970405Y-1305911D02*
G54D15*
D03*
X912018Y-1306700D02*
G54D15*
D03*
X883092Y-1306705D02*
G54D15*
D03*
X912018Y-1415444D02*
G54D15*
D03*
X883092Y-1415449D02*
G54D15*
D03*
X999331Y-1416238D02*
G54D15*
D03*
X970405Y-1416242D02*
G54D15*
D03*
X999331Y-1474975D02*
G54D15*
D03*
X970405Y-1474980D02*
G54D15*
D03*
X912018Y-1475372D02*
G54D15*
D03*
X883092Y-1475377D02*
G54D15*
D03*
X647303Y-1415841D02*
G54D15*
D03*
X618377Y-1415846D02*
G54D15*
D03*
X734615Y-1415444D02*
G54D15*
D03*
X705689Y-1415449D02*
G54D15*
D03*
X734615Y-1475372D02*
G54D15*
D03*
X705689Y-1475377D02*
G54D15*
D03*
X646906Y-1475372D02*
G54D15*
D03*
X617980Y-1475377D02*
G54D15*
D03*
X646906Y-608994D02*
G54D15*
D03*
X617980Y-608999D02*
G54D15*
D03*
X734615Y-609391D02*
G54D15*
D03*
X705689Y-609396D02*
G54D15*
D03*
X734615Y-665747D02*
G54D15*
D03*
X705689Y-665752D02*
G54D15*
D03*
X646906Y-665350D02*
G54D15*
D03*
X617980Y-665355D02*
G54D15*
D03*
X646906Y-723294D02*
G54D15*
D03*
X617980Y-723299D02*
G54D15*
D03*
X734615Y-723691D02*
G54D15*
D03*
X705689Y-723696D02*
G54D15*
D03*
X646906Y-779650D02*
G54D15*
D03*
X617980Y-779655D02*
G54D15*
D03*
X734615Y-779650D02*
G54D15*
D03*
X705689Y-779655D02*
G54D15*
D03*
X647303Y-869344D02*
G54D15*
D03*
X618377Y-869349D02*
G54D15*
D03*
X734615Y-869741D02*
G54D15*
D03*
X705689Y-869746D02*
G54D15*
D03*
X647303Y-925700D02*
G54D15*
D03*
X618377Y-925705D02*
G54D15*
D03*
X734615Y-925700D02*
G54D15*
D03*
X705689Y-925705D02*
G54D15*
D03*
X646906Y-983644D02*
G54D15*
D03*
X617980Y-983649D02*
G54D15*
D03*
X734218Y-984041D02*
G54D15*
D03*
X705292Y-984046D02*
G54D15*
D03*
X735409Y-1040397D02*
G54D15*
D03*
X706483Y-1040402D02*
G54D15*
D03*
X646906Y-1040000D02*
G54D15*
D03*
X617980Y-1040005D02*
G54D15*
D03*
X735409Y-1140013D02*
G54D15*
D03*
X706483Y-1140018D02*
G54D15*
D03*
X647303Y-1139219D02*
G54D15*
D03*
X618377Y-1139224D02*
G54D15*
D03*
X646906Y-1189225D02*
G54D15*
D03*
X617980Y-1189230D02*
G54D15*
D03*
X735012Y-1189225D02*
G54D15*
D03*
X706086Y-1189230D02*
G54D15*
D03*
X646906Y-1250344D02*
G54D15*
D03*
X617980Y-1250349D02*
G54D15*
D03*
X734615Y-1250741D02*
G54D15*
D03*
X705689Y-1250746D02*
G54D15*
D03*
X734615Y-1307097D02*
G54D15*
D03*
X705689Y-1307102D02*
G54D15*
D03*
X646906Y-1306700D02*
G54D15*
D03*
X617980Y-1306705D02*
G54D15*
D03*
X912018Y-163700D02*
G54D15*
D03*
X883092Y-163705D02*
G54D15*
D03*
X999331Y-163700D02*
G54D15*
D03*
X970405Y-163705D02*
G54D15*
D03*
X999331Y-231963D02*
G54D15*
D03*
X970405Y-231968D02*
G54D15*
D03*
X999331Y-301019D02*
G54D15*
D03*
X970405Y-301024D02*
G54D15*
D03*
X912018Y-231963D02*
G54D15*
D03*
X883092Y-231968D02*
G54D15*
D03*
X912018Y-301416D02*
G54D15*
D03*
X883092Y-301421D02*
G54D15*
D03*
X912018Y-925700D02*
G54D15*
D03*
X883092Y-925705D02*
G54D15*
D03*
X275431Y-703054D02*
G54D15*
D03*
X246505Y-703058D02*
G54D15*
D03*
X357187Y-703450D02*
G54D15*
D03*
X328261Y-703455D02*
G54D15*
D03*
X429418Y-703450D02*
G54D15*
D03*
X400492Y-703455D02*
G54D15*
D03*
X500062Y-703450D02*
G54D15*
D03*
X471136Y-703455D02*
G54D15*
D03*
X576262Y-703450D02*
G54D15*
D03*
X547336Y-703455D02*
G54D15*
D03*
X348853Y-430003D02*
G54D15*
D03*
X319927Y-430008D02*
G54D15*
D03*
X431006Y-430400D02*
G54D15*
D03*
X402080Y-430405D02*
G54D15*
D03*
X561975Y-781634D02*
G54D16*
D03*
X561970Y-752708D02*
G54D16*
D03*
X561975Y-866566D02*
G54D16*
D03*
X561970Y-837640D02*
G54D16*
D03*
X561975Y-980469D02*
G54D16*
D03*
X561970Y-951543D02*
G54D16*
D03*
X561975Y-1055875D02*
G54D16*
D03*
X561970Y-1026949D02*
G54D16*
D03*
X559197Y-1132075D02*
G54D16*
D03*
X559192Y-1103149D02*
G54D16*
D03*
X558403Y-1203513D02*
G54D16*
D03*
X558398Y-1174587D02*
G54D16*
D03*
X1060847Y-173225D02*
G54D17*
D03*
X1060847Y-218862D02*
G54D17*
D03*
X1060847Y-250219D02*
G54D17*
D03*
X1060847Y-295856D02*
G54D17*
D03*
X1060847Y-328006D02*
G54D17*
D03*
X1060847Y-373643D02*
G54D17*
D03*
X1060450Y-405000D02*
G54D17*
D03*
X1060450Y-450637D02*
G54D17*
D03*
X1060847Y-482788D02*
G54D17*
D03*
X1060847Y-528424D02*
G54D17*
D03*
X1060450Y-560575D02*
G54D17*
D03*
X1060450Y-606212D02*
G54D17*
D03*
X1060847Y-637966D02*
G54D17*
D03*
X1060847Y-683603D02*
G54D17*
D03*
X1060847Y-715754D02*
G54D17*
D03*
X1060847Y-761390D02*
G54D17*
D03*
X1060847Y-793541D02*
G54D17*
D03*
X1060847Y-839178D02*
G54D17*
D03*
X1060847Y-871725D02*
G54D17*
D03*
X1060847Y-917362D02*
G54D17*
D03*
X1060847Y-949116D02*
G54D17*
D03*
X1060847Y-994753D02*
G54D17*
D03*
X1060847Y-1026904D02*
G54D17*
D03*
X1060847Y-1072540D02*
G54D17*
D03*
X1060847Y-1104294D02*
G54D17*
D03*
X1060847Y-1149931D02*
G54D17*
D03*
X1060847Y-1182478D02*
G54D17*
D03*
X1060847Y-1228115D02*
G54D17*
D03*
X1060847Y-1259472D02*
G54D17*
D03*
X1060847Y-1305109D02*
G54D17*
D03*
X1060847Y-1337260D02*
G54D17*
D03*
X1060847Y-1382896D02*
G54D17*
D03*
X1060847Y-1414650D02*
G54D17*
D03*
X1060847Y-1460287D02*
G54D17*
D03*
X798115Y-599469D02*
G54D18*
D03*
X819546Y-608994D02*
G54D18*
D03*
X798115Y-618519D02*
G54D18*
D03*
X798115Y-420875D02*
G54D18*
D03*
X819546Y-430400D02*
G54D18*
D03*
X798115Y-439925D02*
G54D18*
D03*
X798115Y-655825D02*
G54D18*
D03*
X819546Y-665350D02*
G54D18*
D03*
X798115Y-674875D02*
G54D18*
D03*
X798115Y-713769D02*
G54D18*
D03*
X819546Y-723294D02*
G54D18*
D03*
X798115Y-732819D02*
G54D18*
D03*
X798115Y-770125D02*
G54D18*
D03*
X819546Y-779650D02*
G54D18*
D03*
X798115Y-789175D02*
G54D18*
D03*
X798115Y-859819D02*
G54D18*
D03*
X819546Y-869344D02*
G54D18*
D03*
X798115Y-878869D02*
G54D18*
D03*
X798115Y-974119D02*
G54D18*
D03*
X819546Y-983644D02*
G54D18*
D03*
X798115Y-993169D02*
G54D18*
D03*
X798115Y-1030475D02*
G54D18*
D03*
X819546Y-1040000D02*
G54D18*
D03*
X798115Y-1049525D02*
G54D18*
D03*
X798115Y-1129694D02*
G54D18*
D03*
X819546Y-1139219D02*
G54D18*
D03*
X798115Y-1148744D02*
G54D18*
D03*
X798115Y-1179700D02*
G54D18*
D03*
X819546Y-1189225D02*
G54D18*
D03*
X798115Y-1198750D02*
G54D18*
D03*
X798115Y-1240819D02*
G54D18*
D03*
X819546Y-1250344D02*
G54D18*
D03*
X798115Y-1259869D02*
G54D18*
D03*
X798115Y-1297175D02*
G54D18*
D03*
X819546Y-1306700D02*
G54D18*
D03*
X798115Y-1316225D02*
G54D18*
D03*
X798115Y-1405919D02*
G54D18*
D03*
X819546Y-1415444D02*
G54D18*
D03*
X798115Y-1424969D02*
G54D18*
D03*
X798115Y-1465450D02*
G54D18*
D03*
X819546Y-1474975D02*
G54D18*
D03*
X798115Y-1484500D02*
G54D18*
D03*
X798115Y-154175D02*
G54D18*
D03*
X819546Y-163700D02*
G54D18*
D03*
X798115Y-173225D02*
G54D18*
D03*
X798115Y-222438D02*
G54D18*
D03*
X819546Y-231963D02*
G54D18*
D03*
X798115Y-241488D02*
G54D18*
D03*
X798115Y-916175D02*
G54D18*
D03*
X819546Y-925700D02*
G54D18*
D03*
X798115Y-935225D02*
G54D18*
D03*
X581818Y-46225D02*
G54D19*
D03*
X582215Y-69641D02*
G54D19*
D03*
X582215Y-93056D02*
G54D19*
D03*
X642937Y-70038D02*
G54D20*
D03*
M02*
