%FSLAX34Y34*%
%MOMM*%
%LNCOPPER_TOP*%
G71*
G01*
%ADD10C, 0.50*%
%ADD11C, 0.55*%
%ADD12C, 0.33*%
%ADD13C, 0.40*%
%ADD14C, 0.30*%
%ADD15C, 1.00*%
%ADD16C, 0.70*%
%ADD17C, 1.02*%
%ADD18C, 1.10*%
%ADD19C, 1.60*%
%ADD20C, 1.60*%
%ADD21C, 1.50*%
%ADD22C, 1.50*%
%ADD23R, 3.15X2.20*%
%ADD24R, 3.10X5.60*%
%ADD25C, 0.00*%
%ADD26R, 2.30X1.10*%
%ADD27R, 3.00X1.00*%
%ADD28R, 9.00X10.60*%
%ADD29C, 1.60*%
%ADD30C, 1.50*%
%ADD31C, 2.90*%
%ADD32R, 1.00X1.80*%
%ADD33R, 1.80X1.00*%
%ADD34R, 3.00X1.10*%
%ADD35R, 1.00X0.60*%
%ADD36R, 1.70X1.00*%
%ADD37R, 1.60X3.30*%
%ADD38C, 0.60*%
%ADD39C, 5.00*%
%LPD*%
G54D10*
X999728Y-983644D02*
X1029890Y-983644D01*
X1041400Y-995154D01*
X1079897Y-995154D01*
X1087437Y-1002694D01*
X1087437Y-1072544D01*
X1006078Y-1072544D01*
X999331Y-1065797D01*
X999331Y-1040000D01*
G54D10*
X999331Y-1474975D02*
X1052717Y-1475372D01*
X1060686Y-1467403D01*
X1060686Y-1460410D01*
X1060686Y-1453592D01*
X1087554Y-1426724D01*
X1087554Y-1072440D01*
G54D10*
X999331Y-1416238D02*
X999331Y-1305906D01*
X1060847Y-1305510D01*
X1087437Y-1305510D01*
G54D10*
X999331Y-1250344D02*
X1013253Y-1250344D01*
X1035438Y-1228159D01*
X1087554Y-1228159D01*
G54D10*
X999331Y-163700D02*
X999331Y-145047D01*
X999331Y-139491D01*
X984250Y-124806D01*
X588168Y-124806D01*
G54D10*
X999331Y-869344D02*
X1007665Y-869344D01*
X1029890Y-847119D01*
X1037431Y-839578D01*
X1077912Y-839578D01*
X1088628Y-850294D01*
X1088628Y-906650D01*
X1077912Y-917763D01*
X1037431Y-917763D01*
X1029097Y-925700D01*
X999331Y-925700D01*
G54D10*
X1060450Y-761394D02*
X1029890Y-761394D01*
X1021159Y-761394D01*
X1002506Y-780047D01*
X999331Y-780047D01*
G54D10*
X1029890Y-970547D02*
X1029890Y-983644D01*
G54D10*
X1060450Y-528825D02*
X1063228Y-528825D01*
X1087834Y-553432D01*
X1087834Y-594706D01*
X1076722Y-606216D01*
X1060450Y-606212D01*
X1033462Y-606216D01*
X1029890Y-609788D01*
X999331Y-609788D01*
G54D10*
X999331Y-665350D02*
X999331Y-722897D01*
X999331Y-684004D01*
X1029890Y-684004D01*
X1060847Y-684004D01*
G54D10*
X334962Y-82738D02*
X221456Y-82738D01*
X159940Y-82738D01*
X146050Y-96628D01*
G54D10*
X999331Y-231963D02*
X999331Y-215294D01*
X1022747Y-215294D01*
X1026318Y-218866D01*
X1060847Y-218866D01*
G54D10*
X115887Y-183544D02*
X148733Y-183544D01*
G54D10*
X1087437Y-1150332D02*
X1031589Y-1150332D01*
X1020769Y-1139512D01*
X999214Y-1139512D01*
X999214Y-1189982D01*
G54D10*
X1060847Y-1382900D02*
X1087040Y-1382900D01*
G54D10*
X1029890Y-450641D02*
X1077118Y-450641D01*
X1082278Y-445878D01*
X1082278Y-380791D01*
X1075134Y-373647D01*
X1006872Y-373647D01*
X999728Y-381188D01*
X999728Y-393888D01*
X999728Y-430400D01*
G54D10*
X985440Y-287525D02*
X987425Y-285541D01*
X1027112Y-285541D01*
X1038225Y-296653D01*
X1060450Y-296653D01*
G54D10*
X763587Y-82738D02*
X753268Y-93056D01*
X650478Y-93056D01*
X642937Y-85516D01*
X642937Y-70038D01*
X444103Y-70038D01*
X432594Y-81547D01*
X432594Y-112106D01*
G54D10*
X519112Y-301019D02*
X519112Y-341103D01*
X486172Y-374044D01*
X416718Y-374044D01*
X416718Y-389125D01*
X402034Y-403810D01*
X402034Y-430400D01*
X348853Y-430003D01*
X348853Y-414922D01*
X338137Y-404206D01*
X280194Y-404206D01*
X252015Y-376028D01*
X250031Y-376028D01*
G54D10*
X581818Y-93056D02*
X509587Y-93056D01*
X499268Y-82738D01*
X473075Y-82738D01*
G54D10*
X518318Y-93056D02*
X518318Y-232360D01*
X518715Y-232360D01*
X446087Y-232360D01*
G54D10*
X171450Y-1013806D02*
X146050Y-1013806D01*
G54D10*
X334168Y-404206D02*
X334168Y-374044D01*
G54D10*
X1287462Y-232756D02*
X1266031Y-211325D01*
X1194197Y-211325D01*
X1171178Y-234741D01*
X1094978Y-234741D01*
X1087040Y-242678D01*
X1087040Y-269269D01*
X1079897Y-276413D01*
X719534Y-276413D01*
X705644Y-289906D01*
X705644Y-301019D01*
G54D11*
X1287462Y-274825D02*
X1266428Y-295860D01*
X1206103Y-295860D01*
X1193800Y-308163D01*
X1029494Y-308163D01*
X1022350Y-301019D01*
X999331Y-301019D01*
G54D10*
X1034256Y-263713D02*
X1031875Y-266094D01*
X706040Y-266491D01*
X676275Y-296256D01*
X676275Y-326816D01*
X656431Y-346263D01*
X571500Y-346263D01*
X547687Y-370075D01*
X547687Y-430003D01*
G54D10*
X1044575Y-190688D02*
X815181Y-190688D01*
X808434Y-197435D01*
X808831Y-250219D01*
X802084Y-256966D01*
X692944Y-256966D01*
X648494Y-301416D01*
X646112Y-301416D01*
G54D12*
X565150Y-393094D02*
X718344Y-393094D01*
X734615Y-376822D01*
X734615Y-301019D01*
G54D12*
X551656Y-730834D02*
X551656Y-745387D01*
X559291Y-753022D01*
X561940Y-753022D01*
G54D12*
X185737Y-1115406D02*
X337679Y-1115406D01*
X350667Y-1102418D01*
X350667Y-1004052D01*
G54D12*
X618331Y-665350D02*
X205364Y-665350D01*
X205364Y-665994D01*
G54D10*
X1259681Y-528825D02*
X1252140Y-536366D01*
X1203722Y-536366D01*
X1172765Y-505410D01*
X1127522Y-505410D01*
G54D12*
X564356Y-377219D02*
X699690Y-377219D01*
X720725Y-356582D01*
X720725Y-292288D01*
X727472Y-285144D01*
X964803Y-285144D01*
X971153Y-291494D01*
X971153Y-301019D01*
G54D12*
X280987Y-1103104D02*
X158353Y-1103104D01*
X146050Y-1115406D01*
G54D12*
X538162Y-879663D02*
X538162Y-873948D01*
X545916Y-866194D01*
X561781Y-866194D01*
G54D12*
X171450Y-721706D02*
X171450Y-629147D01*
X191436Y-609160D01*
X618380Y-609160D01*
G54D10*
X1181894Y-445482D02*
X1164431Y-428019D01*
X1127522Y-428019D01*
G54D12*
X500062Y-703450D02*
X486039Y-703450D01*
G54D12*
X486568Y-430400D02*
X518775Y-430402D01*
G54D12*
X486568Y-703450D02*
X486568Y-813940D01*
X378618Y-921890D01*
X378618Y-1130578D01*
X367990Y-1141206D01*
X171553Y-1141206D01*
G54D12*
X171450Y-1191606D02*
X384623Y-1191606D01*
X399469Y-1176760D01*
X399469Y-946256D01*
X441379Y-904346D01*
X586794Y-904346D01*
X602034Y-889106D01*
X602034Y-790680D01*
X612837Y-779877D01*
X618760Y-779877D01*
G54D10*
X1286668Y-730438D02*
X1250202Y-693971D01*
X1208752Y-693971D01*
X1175723Y-660943D01*
X1127298Y-660943D01*
G54D12*
X605631Y-677256D02*
X407022Y-677256D01*
X400575Y-683704D01*
X400575Y-703530D01*
X400575Y-877867D01*
X367678Y-910765D01*
X367678Y-1114600D01*
X354171Y-1128106D01*
X158777Y-1128106D01*
X145835Y-1141048D01*
G54D12*
X617140Y-330388D02*
X617186Y-301421D01*
G54D12*
X191294Y-1179700D02*
X372904Y-1179700D01*
X388144Y-1164460D01*
X388144Y-934590D01*
X428784Y-893950D01*
X577803Y-893950D01*
X585628Y-886125D01*
X585628Y-740280D01*
X602132Y-723777D01*
X618230Y-723777D01*
G54D10*
X1200944Y-639156D02*
X1200944Y-610978D01*
X1173162Y-582800D01*
X1127125Y-582800D01*
G54D12*
X617537Y-231963D02*
X547687Y-231963D01*
X547687Y-266094D01*
X534194Y-279985D01*
X534194Y-355391D01*
X490934Y-398650D01*
X430609Y-398650D01*
X417115Y-412144D01*
X417115Y-445085D01*
X409178Y-453419D01*
X345678Y-453419D01*
X335359Y-443100D01*
X335359Y-419685D01*
X329009Y-413335D01*
X303609Y-413335D01*
X283368Y-433575D01*
X115887Y-433575D01*
X109140Y-439925D01*
X109140Y-1449575D01*
X118268Y-1458704D01*
X159544Y-1458704D01*
X171450Y-1470610D01*
G54D10*
X1232694Y-232756D02*
X1223962Y-233153D01*
X1183878Y-273238D01*
X1127125Y-273238D01*
G54D12*
X599281Y-1408300D02*
X183550Y-1408300D01*
X171244Y-1420606D01*
G54D12*
X148034Y-582006D02*
X159940Y-582006D01*
X167481Y-574466D01*
X167481Y-511760D01*
X178594Y-500647D01*
X308372Y-500647D01*
X319881Y-489138D01*
X319881Y-430003D01*
G54D10*
X1286668Y-429606D02*
X1306768Y-429606D01*
X1321147Y-443985D01*
X1321147Y-526677D01*
X1302374Y-545450D01*
X1097627Y-545450D01*
X1086832Y-534655D01*
X1086832Y-518872D01*
X1079831Y-511872D01*
X999640Y-511872D01*
G54D13*
X1286668Y-471675D02*
X1265562Y-492782D01*
X1203534Y-492782D01*
X1182215Y-471462D01*
X932924Y-471462D01*
X911613Y-492772D01*
X911613Y-511940D01*
G54D10*
X1286668Y-513744D02*
X1310987Y-489426D01*
X1310987Y-462462D01*
X1299497Y-450972D01*
X1206007Y-450972D01*
X1194101Y-462878D01*
X1095102Y-462878D01*
X1091277Y-459053D01*
X1091277Y-362914D01*
X1085077Y-356714D01*
X996042Y-356714D01*
X989042Y-363714D01*
X989042Y-447547D01*
X981172Y-455417D01*
X913477Y-455417D01*
X896721Y-472173D01*
X722731Y-472173D01*
X705652Y-489252D01*
X705689Y-512161D01*
G54D10*
X1231900Y-387538D02*
X1231900Y-373250D01*
X1175147Y-316497D01*
X919162Y-316497D01*
X912018Y-309353D01*
X912018Y-301416D01*
G54D12*
X719931Y-1050319D02*
X666544Y-1103705D01*
X461514Y-1103705D01*
X454913Y-1110306D01*
X454913Y-1203303D01*
X441148Y-1217068D01*
X171450Y-1217006D01*
G54D12*
X970756Y-511760D02*
X960834Y-511760D01*
X950912Y-521682D01*
X950912Y-532794D01*
G54D12*
X434975Y-960625D02*
X469908Y-925692D01*
X618706Y-925692D01*
G54D10*
X1286668Y-876488D02*
X1265350Y-897806D01*
X1203037Y-897806D01*
X1174948Y-869718D01*
X1174948Y-828442D01*
X1163023Y-816518D01*
X1127298Y-816518D01*
G54D12*
X883444Y-512156D02*
X883444Y-552124D01*
X877133Y-558435D01*
X593032Y-558435D01*
G54D12*
X593725Y-1203513D02*
X558719Y-1203513D01*
X558719Y-1203513D01*
X558719Y-1221144D01*
X549293Y-1230570D01*
X159108Y-1230570D01*
X146015Y-1217477D01*
G54D12*
X414337Y-1119375D02*
X414337Y-955545D01*
X454342Y-915540D01*
X594677Y-915540D01*
X618389Y-891828D01*
X618389Y-869827D01*
G54D10*
X1231900Y-876488D02*
X1231900Y-828648D01*
X1189230Y-785978D01*
X1189230Y-750418D01*
X1177240Y-738428D01*
X1127530Y-738428D01*
G54D12*
X734615Y-512156D02*
X734615Y-524460D01*
X727075Y-532000D01*
X646906Y-532000D01*
X646906Y-512156D01*
G54D12*
X646906Y-532000D02*
X584994Y-532000D01*
X521494Y-595500D01*
X213516Y-595499D01*
G54D12*
X441325Y-1118582D02*
X441325Y-1053891D01*
X454818Y-1040397D01*
X618728Y-1040397D01*
G54D10*
X1286668Y-990788D02*
X1265237Y-1012219D01*
X1133078Y-1012219D01*
X1127125Y-1006266D01*
X1127125Y-972134D01*
G54D12*
X523081Y-719722D02*
X569912Y-719722D01*
X576262Y-713372D01*
X576262Y-703450D01*
G54D12*
X522684Y-455800D02*
X552847Y-455800D01*
X564753Y-443894D01*
X564753Y-419685D01*
X580231Y-404206D01*
X812403Y-404206D01*
X883047Y-333563D01*
X883047Y-301019D01*
G54D12*
X537368Y-1087625D02*
X624703Y-1087625D01*
X632618Y-1079710D01*
X632618Y-1017140D01*
X618865Y-1003387D01*
X618865Y-983492D01*
G54D10*
X1231900Y-990788D02*
X1231900Y-978484D01*
X1148159Y-894744D01*
X1127522Y-894744D01*
G54D12*
X581025Y-430400D02*
X618377Y-430405D01*
G54D12*
X581025Y-316894D02*
X571500Y-316894D01*
X556418Y-301813D01*
X547687Y-301813D01*
G54D10*
X1231900Y-429606D02*
X1191815Y-389522D01*
X1191815Y-371266D01*
X1171178Y-350628D01*
X1128712Y-350628D01*
G54D12*
X758825Y-1433700D02*
X159096Y-1433700D01*
X146002Y-1420608D01*
G54D12*
X148034Y-607406D02*
X167084Y-607406D01*
X181768Y-592325D01*
X181768Y-525650D01*
X192484Y-514934D01*
X421481Y-514538D01*
X431006Y-505013D01*
X431006Y-430400D01*
G54D12*
X457994Y-1256694D02*
X571103Y-1256694D01*
X617934Y-1209863D01*
X617934Y-1189225D01*
G54D10*
X1286668Y-1143188D02*
X1265350Y-1164506D01*
X1201767Y-1164506D01*
X1164293Y-1127033D01*
X1127298Y-1127033D01*
G54D12*
X569515Y-1155094D02*
X584200Y-1155094D01*
X600075Y-1139219D01*
X618377Y-1139224D01*
G54D10*
X1231900Y-1143188D02*
X1198562Y-1109850D01*
X1198562Y-1063416D01*
X1184672Y-1049525D01*
X1127522Y-1049525D01*
G54D12*
X171450Y-1344006D02*
X183753Y-1331704D01*
X607218Y-1331704D01*
X617934Y-1320988D01*
X617934Y-1306700D01*
G54D10*
X1286668Y-1257488D02*
X1265237Y-1278919D01*
X1197768Y-1278919D01*
X1194197Y-1282491D01*
X1127125Y-1282491D01*
G54D12*
X146050Y-1344006D02*
X158800Y-1331257D01*
X158800Y-1286312D01*
X164212Y-1280900D01*
X612205Y-1280900D01*
X618756Y-1274348D01*
X618756Y-1250426D01*
G54D10*
X1231900Y-1257488D02*
X1179565Y-1205153D01*
X1127530Y-1205153D01*
G54D12*
X372268Y-1458704D02*
X559990Y-1458704D01*
X576659Y-1475372D01*
X617934Y-1475372D01*
G54D10*
X1286668Y-1422588D02*
X1265562Y-1443694D01*
X1205853Y-1443694D01*
X1199707Y-1437548D01*
X1127298Y-1437548D01*
G54D12*
X146050Y-1369406D02*
X159143Y-1382500D01*
X611303Y-1382500D01*
X618755Y-1389952D01*
X618755Y-1415526D01*
G54D10*
X1231900Y-1422588D02*
X1169405Y-1360093D01*
X1127530Y-1360093D01*
G54D12*
X561975Y-979675D02*
X561975Y-1026506D01*
X450850Y-1026506D01*
X427831Y-1049128D01*
X427831Y-1186844D01*
X409972Y-1204704D01*
X137715Y-1204704D01*
X134540Y-1207878D01*
X134540Y-1351547D01*
X139700Y-1356706D01*
X158746Y-1356712D01*
G54D12*
X185340Y-297447D02*
X370164Y-297447D01*
X385830Y-281781D01*
X505101Y-281781D01*
X533784Y-253098D01*
X533784Y-170308D01*
X540785Y-163308D01*
X617186Y-163308D01*
G54D10*
X878681Y-78769D02*
X878681Y-100535D01*
X887673Y-109526D01*
X1065690Y-109526D01*
X1127456Y-171292D01*
X1127456Y-192672D01*
G54D10*
X561975Y-1118582D02*
X558800Y-1121756D01*
X558800Y-1174541D01*
X558403Y-1174541D01*
X558403Y-1172556D01*
X729456Y-1172556D01*
X735012Y-1178113D01*
X735012Y-1189225D01*
X744934Y-1189622D01*
X767556Y-1166604D01*
X803275Y-1166604D01*
X808831Y-1172556D01*
X808831Y-1307097D01*
X799306Y-1316622D01*
X760412Y-1316622D01*
X750887Y-1307097D01*
X734615Y-1307097D01*
X734615Y-1415444D01*
X767556Y-1415444D01*
X777081Y-1424969D01*
X798115Y-1424969D01*
X798115Y-1441638D01*
X809228Y-1452750D01*
X809228Y-1477356D01*
X801687Y-1484897D01*
X765175Y-1484897D01*
X755650Y-1475372D01*
X734615Y-1475372D01*
G54D10*
X148034Y-505806D02*
X133350Y-505806D01*
X123428Y-515728D01*
X123031Y-745122D01*
X129778Y-751869D01*
X202406Y-751869D01*
X300037Y-751869D01*
X307181Y-759013D01*
X307181Y-777269D01*
G54D10*
X149225Y-751869D02*
X145256Y-751869D01*
X129778Y-751869D01*
X123031Y-758616D01*
X123031Y-828863D01*
X131365Y-837197D01*
X145256Y-837197D01*
X202406Y-837197D01*
X217884Y-837197D01*
X226615Y-846325D01*
X226615Y-933241D01*
X171450Y-988406D01*
X146050Y-988406D01*
G54D10*
X334962Y-57338D02*
X221456Y-57338D01*
X169862Y-57338D01*
X138906Y-26382D01*
X75406Y-26382D01*
G54D12*
X734615Y-430400D02*
X734615Y-454213D01*
X633015Y-454213D01*
X617934Y-469294D01*
X617980Y-512161D01*
G54D12*
X471487Y-703450D02*
X429418Y-703450D01*
X429418Y-777269D01*
G54D10*
X419894Y-181956D02*
X384175Y-181956D01*
X384175Y-75594D01*
X384175Y-61703D01*
X388937Y-56941D01*
X473075Y-57338D01*
X498872Y-57338D01*
X509587Y-46622D01*
X702072Y-46622D01*
X712390Y-56941D01*
X763587Y-57338D01*
X890587Y-57338D01*
X898525Y-65275D01*
X898525Y-78769D01*
X898525Y-90675D01*
X905668Y-97819D01*
X1000125Y-97819D01*
X1006475Y-91469D01*
X1006475Y-78769D01*
G54D12*
X797718Y-732819D02*
X785018Y-732819D01*
X759343Y-732819D01*
X750044Y-723519D01*
X734600Y-723519D01*
X734600Y-733234D01*
X725907Y-741927D01*
X639547Y-741927D01*
X631927Y-734307D01*
X631927Y-696398D01*
X622212Y-686682D01*
X564617Y-686682D01*
X554457Y-686682D01*
X547366Y-693773D01*
X547366Y-703498D01*
G54D12*
X734615Y-925700D02*
X752078Y-925700D01*
X761603Y-935225D01*
X799703Y-935225D01*
X808434Y-926494D01*
X808434Y-903872D01*
X797718Y-893156D01*
X797718Y-879266D01*
G54D12*
X808831Y-1271775D02*
X798093Y-1271775D01*
X744061Y-1271775D01*
X734578Y-1262292D01*
X734578Y-1250827D01*
G54D12*
X734615Y-454213D02*
X754856Y-454213D01*
X769236Y-439854D01*
X798527Y-439854D01*
G54D10*
X797718Y-1166604D02*
X797718Y-1149141D01*
G54D12*
X734615Y-779650D02*
X734615Y-789969D01*
X742553Y-797906D01*
X754856Y-797906D01*
X763587Y-789175D01*
X797718Y-789175D01*
G54D12*
X797718Y-173225D02*
X787797Y-173225D01*
X783828Y-177194D01*
X773906Y-177194D01*
X760412Y-163700D01*
X734218Y-163700D01*
G54D12*
X734615Y-665747D02*
X734615Y-609247D01*
X754856Y-609391D01*
X789384Y-608994D01*
X798909Y-618519D01*
G54D12*
X797718Y-241488D02*
X773906Y-241488D01*
X753804Y-241488D01*
X744304Y-231988D01*
X734204Y-231988D01*
G54D12*
X785018Y-692338D02*
X785018Y-682394D01*
X792075Y-675338D01*
X798449Y-675338D01*
G54D10*
X797718Y-993169D02*
X797718Y-1005075D01*
X809625Y-1016188D01*
X809625Y-1035238D01*
X798115Y-1045556D01*
X798115Y-1049922D01*
G54D10*
X334168Y-348644D02*
X416718Y-348644D01*
G54D12*
X561975Y-837594D02*
X561975Y-807034D01*
X565547Y-803463D01*
G54D12*
X561975Y-1055875D02*
X561970Y-1071796D01*
G54D12*
X734218Y-1005075D02*
X734218Y-984146D01*
G54D12*
X808831Y-1198750D02*
X798093Y-1198750D01*
G54D12*
X797718Y-1271775D02*
X797718Y-1260327D01*
G54D12*
X275431Y-751869D02*
X275431Y-703054D01*
G54D10*
X148431Y-216882D02*
X91281Y-216882D01*
G54D12*
X797718Y-893156D02*
X743347Y-893156D01*
X734615Y-884425D01*
X734615Y-869741D01*
G54D12*
X565547Y-803463D02*
X561975Y-799891D01*
X561975Y-781634D01*
X510376Y-781636D01*
G54D12*
X246062Y-703450D02*
X246062Y-691098D01*
X253466Y-683695D01*
X349351Y-683695D01*
X357202Y-691547D01*
X357202Y-703450D01*
X357202Y-831418D01*
X335064Y-853557D01*
X306712Y-853557D01*
G54D12*
X1060450Y-405000D02*
X1021159Y-405000D01*
X1015206Y-410953D01*
X1015206Y-457388D01*
X1008459Y-464135D01*
X922734Y-464135D01*
X898525Y-488344D01*
X898525Y-555813D01*
X911622Y-568910D01*
X911622Y-608994D01*
G54D12*
X970756Y-608994D02*
X943228Y-608994D01*
X921009Y-631212D01*
X891164Y-631212D01*
X883126Y-623174D01*
X883126Y-608994D01*
X818976Y-608794D01*
G54D12*
X646906Y-608994D02*
X706136Y-608994D01*
X706136Y-591294D01*
X712736Y-584694D01*
X791451Y-584694D01*
X798051Y-591294D01*
X798051Y-599294D01*
G54D12*
X911622Y-780047D02*
X931273Y-780047D01*
X953518Y-757802D01*
X964948Y-757802D01*
X985637Y-737113D01*
X985637Y-654563D01*
X1002195Y-638005D01*
X1061004Y-638005D01*
G54D12*
X819944Y-780047D02*
X882650Y-780047D01*
X882650Y-792350D01*
X889794Y-799494D01*
X964406Y-799494D01*
X970359Y-793541D01*
X970359Y-780047D01*
G54D12*
X646906Y-779650D02*
X683138Y-779650D01*
X706136Y-779650D01*
X706136Y-767377D01*
X714809Y-758704D01*
X752274Y-758704D01*
X763721Y-770150D01*
X798051Y-770150D01*
G54D12*
X1060450Y-560575D02*
X992083Y-560575D01*
X985083Y-567576D01*
X985083Y-625378D01*
X971748Y-638714D01*
X939363Y-638714D01*
X922218Y-655858D01*
X922218Y-686974D01*
X911465Y-697727D01*
X911465Y-723810D01*
G54D12*
X819150Y-723294D02*
X883092Y-723299D01*
X883444Y-734010D01*
X893365Y-743932D01*
X927497Y-743932D01*
X948134Y-723294D01*
X970756Y-723294D01*
G54D12*
X646906Y-723294D02*
X676672Y-723294D01*
X705644Y-723691D01*
X705644Y-710991D01*
X712390Y-704244D01*
X761206Y-704244D01*
X770334Y-713769D01*
X798115Y-713769D01*
G54D12*
X912018Y-925700D02*
X912018Y-912400D01*
X918618Y-905800D01*
X963000Y-905800D01*
X986272Y-882528D01*
X986272Y-847603D01*
X1040295Y-793580D01*
X1061004Y-793580D01*
G54D12*
X819150Y-925700D02*
X883047Y-925700D01*
X883047Y-936813D01*
X891778Y-945544D01*
X927497Y-945544D01*
X947340Y-925700D01*
X970756Y-925700D01*
G54D12*
X646906Y-925700D02*
X705644Y-925700D01*
X705644Y-913794D01*
X713978Y-905460D01*
X763587Y-905460D01*
X774700Y-916175D01*
X798115Y-916175D01*
G54D12*
X912018Y-1189225D02*
X912018Y-1178474D01*
X919597Y-1170895D01*
X982447Y-1170895D01*
X989447Y-1163895D01*
X989447Y-1111172D01*
X996447Y-1104172D01*
X1061004Y-1104172D01*
G54D12*
X912018Y-869344D02*
X912018Y-843580D01*
X918619Y-836980D01*
X967194Y-836980D01*
X985637Y-818537D01*
X985637Y-762657D01*
X1032660Y-715634D01*
X1061004Y-715634D01*
G54D12*
X819150Y-869344D02*
X883300Y-869344D01*
X883300Y-880984D01*
X891973Y-889657D01*
X926263Y-889657D01*
X946576Y-869344D01*
X970930Y-869344D01*
G54D12*
X646906Y-869344D02*
X705644Y-869741D01*
X705644Y-852278D01*
X712787Y-845134D01*
X791368Y-845134D01*
X797718Y-851484D01*
X797718Y-859422D01*
G54D12*
X912018Y-1040000D02*
X927225Y-1040000D01*
X947185Y-1020040D01*
X966235Y-1020040D01*
X986272Y-1000004D01*
X986272Y-967618D01*
X1004735Y-949155D01*
X1061004Y-949155D01*
G54D12*
X819150Y-1040000D02*
X883300Y-1040000D01*
X883300Y-1053301D01*
X892232Y-1062234D01*
X933883Y-1062234D01*
X956116Y-1040000D01*
X970930Y-1040000D01*
G54D12*
X646906Y-1040000D02*
X706136Y-1040000D01*
X706136Y-1027727D01*
X714174Y-1019688D01*
X759894Y-1019688D01*
X770706Y-1030500D01*
X798051Y-1030500D01*
G54D12*
X912018Y-983644D02*
X924670Y-983644D01*
X952617Y-955697D01*
X971667Y-955697D01*
X985637Y-941727D01*
X985637Y-912517D01*
X1026310Y-871844D01*
X1061004Y-871844D01*
G54D12*
X819150Y-983644D02*
X883300Y-983644D01*
X883300Y-995284D01*
X892608Y-1004592D01*
X934518Y-1004592D01*
X955466Y-983644D01*
X970802Y-983649D01*
G54D12*
X646906Y-983644D02*
X706136Y-983644D01*
X706136Y-970086D01*
X714809Y-961412D01*
X758624Y-961412D01*
X771356Y-974144D01*
X798051Y-974144D01*
G54D12*
X819150Y-1189225D02*
X883300Y-1189225D01*
X883300Y-1200322D01*
X892608Y-1209630D01*
X926898Y-1209630D01*
X947303Y-1189225D01*
X970930Y-1189225D01*
G54D12*
X646906Y-1189225D02*
X706040Y-1189225D01*
X706040Y-1202322D01*
X712787Y-1209069D01*
X752078Y-1209069D01*
X781447Y-1179700D01*
X798115Y-1179700D01*
G54D12*
X912018Y-1139219D02*
X929878Y-1139219D01*
X948928Y-1158269D01*
X977503Y-1158269D01*
X981868Y-1153904D01*
X981868Y-1064210D01*
X985044Y-1061034D01*
X985044Y-1028491D01*
X991790Y-1021744D01*
X1008856Y-1021744D01*
X1014015Y-1026904D01*
X1060847Y-1026904D01*
G54D12*
X970756Y-1139219D02*
X957846Y-1139219D01*
X937946Y-1119319D01*
X889726Y-1119319D01*
X883126Y-1125918D01*
X883126Y-1139219D01*
X818976Y-1139219D01*
G54D12*
X647303Y-1139219D02*
X706136Y-1139219D01*
X706136Y-1149589D01*
X715444Y-1158897D01*
X746759Y-1158897D01*
X775937Y-1129719D01*
X798051Y-1129719D01*
G54D12*
X912018Y-1306700D02*
X934210Y-1306700D01*
X958215Y-1282696D01*
X1011529Y-1282696D01*
X1034554Y-1259670D01*
X1061004Y-1259670D01*
G54D12*
X819150Y-1306700D02*
X883300Y-1306700D01*
X883300Y-1320001D01*
X889900Y-1326601D01*
X964330Y-1326601D01*
X970930Y-1320001D01*
X970930Y-1306700D01*
G54D12*
X646906Y-1306700D02*
X706136Y-1306700D01*
X706136Y-1295062D01*
X714809Y-1286388D01*
X759259Y-1286388D01*
X770071Y-1297200D01*
X798051Y-1297200D01*
G54D12*
X912018Y-1250344D02*
X927845Y-1250344D01*
X957062Y-1221127D01*
X1009132Y-1221127D01*
X1047900Y-1182359D01*
X1061004Y-1182359D01*
G54D12*
X819150Y-1250344D02*
X883300Y-1250344D01*
X883300Y-1263254D01*
X891973Y-1271927D01*
X937693Y-1271927D01*
X959276Y-1250344D01*
X970930Y-1250344D01*
G54D12*
X646906Y-1250344D02*
X689436Y-1250344D01*
X706136Y-1250344D01*
X706136Y-1238056D01*
X716079Y-1228112D01*
X754814Y-1228112D01*
X767546Y-1240844D01*
X798051Y-1240844D01*
G54D12*
X912018Y-1474975D02*
X924685Y-1474975D01*
X948807Y-1450854D01*
X1030087Y-1450854D01*
X1061004Y-1419937D01*
X1061004Y-1414610D01*
G54D12*
X819150Y-1474975D02*
X883300Y-1474975D01*
X883300Y-1488276D01*
X889900Y-1494876D01*
X934945Y-1494876D01*
X954846Y-1474975D01*
X970930Y-1474975D01*
G54D12*
X646906Y-1475372D02*
X705644Y-1475372D01*
X705644Y-1462672D01*
X713184Y-1455132D01*
X764381Y-1455132D01*
X774700Y-1465450D01*
X798115Y-1465450D01*
G54D14*
X912018Y-1415444D02*
X934244Y-1415444D01*
X955675Y-1436875D01*
X1009253Y-1436875D01*
X1025525Y-1420604D01*
X1025525Y-1351944D01*
X1040209Y-1337260D01*
X1060847Y-1337260D01*
G54D12*
X970756Y-1415444D02*
X970756Y-1402144D01*
X964156Y-1395544D01*
X889726Y-1395544D01*
X883126Y-1402144D01*
X883126Y-1415444D01*
X818976Y-1415444D01*
G54D12*
X797718Y-1394806D02*
X797718Y-1406238D01*
G54D12*
X719931Y-1388456D02*
X706471Y-1401916D01*
X706471Y-1415738D01*
X689771Y-1415738D01*
X647241Y-1415738D01*
G54D14*
X1060450Y-173225D02*
X1028149Y-173225D01*
X1020126Y-181249D01*
X946348Y-181249D01*
X928840Y-163740D01*
X911862Y-163740D01*
G54D12*
X970756Y-163700D02*
X949722Y-163700D01*
X931068Y-145047D01*
X889397Y-145047D01*
X883047Y-151397D01*
X883047Y-163700D01*
X819150Y-163700D01*
G54D12*
X645318Y-163700D02*
X674358Y-163700D01*
X705818Y-163700D01*
X705818Y-146200D01*
X712418Y-139600D01*
X791134Y-139600D01*
X797734Y-146200D01*
X797734Y-154200D01*
G54D14*
X912018Y-231963D02*
X930029Y-231963D01*
X948404Y-250338D01*
X1061004Y-250338D01*
G54D12*
X970359Y-231963D02*
X955525Y-231958D01*
X934298Y-210731D01*
X891118Y-210731D01*
X883080Y-218770D01*
X883080Y-231958D01*
X818930Y-231958D01*
G54D12*
X645318Y-231963D02*
X705644Y-231963D01*
X705644Y-214500D01*
X712390Y-207753D01*
X790972Y-207753D01*
X797718Y-214500D01*
X797718Y-222438D01*
G54D12*
X965200Y-816956D02*
X639833Y-816956D01*
X633633Y-823156D01*
X633633Y-944522D01*
X626633Y-951522D01*
X562002Y-951522D01*
G54D12*
X912018Y-430400D02*
X940824Y-430400D01*
X956427Y-446004D01*
X977382Y-446004D01*
X981827Y-441558D01*
X981827Y-335126D01*
X988827Y-328125D01*
X1061004Y-328125D01*
G54D12*
X970756Y-430400D02*
X970756Y-420875D01*
X963612Y-413732D01*
X889000Y-413732D01*
X883047Y-419685D01*
X883047Y-430400D01*
X819150Y-430400D01*
G54D12*
X647303Y-430400D02*
X706040Y-430400D01*
X706040Y-420082D01*
X712390Y-413732D01*
X754062Y-413732D01*
X761206Y-420875D01*
X798115Y-420875D01*
G54D10*
X384175Y-252600D02*
X347265Y-252600D01*
X316706Y-283160D01*
X181768Y-283160D01*
X181768Y-209738D01*
X172640Y-200610D01*
X148828Y-200610D01*
G54D10*
X181768Y-234344D02*
X148431Y-234344D01*
G54D10*
X181768Y-283160D02*
X160734Y-283160D01*
X149225Y-294669D01*
X149225Y-376425D01*
G54D12*
X912018Y-648682D02*
X912018Y-665412D01*
G54D12*
X912018Y-536763D02*
X965994Y-482788D01*
X1060847Y-482788D01*
G54D12*
X883444Y-648682D02*
X883444Y-665350D01*
X819150Y-665350D01*
G54D12*
X970756Y-665747D02*
X931816Y-665742D01*
G54D12*
X646906Y-665350D02*
X669802Y-665350D01*
X706136Y-665350D01*
X706136Y-678910D01*
X712476Y-685250D01*
X746544Y-685250D01*
X775944Y-655850D01*
X798051Y-655850D01*
G54D12*
X145256Y-874106D02*
X169401Y-874106D01*
X169404Y-874104D01*
X202256Y-874104D01*
G54D12*
X145256Y-788382D02*
X179204Y-788382D01*
X179204Y-788380D01*
X202256Y-788380D01*
X228735Y-788380D01*
X235336Y-794980D01*
X235336Y-816898D01*
X246020Y-827582D01*
X281805Y-827582D01*
G54D12*
X171450Y-1090006D02*
X246459Y-1090006D01*
X253206Y-1083260D01*
X253206Y-847516D01*
X259953Y-840769D01*
X315912Y-840769D01*
X328215Y-828466D01*
X328215Y-703450D01*
G54D12*
X240506Y-909032D02*
X240506Y-1070941D01*
X233506Y-1077942D01*
X158141Y-1077942D01*
X145834Y-1090248D01*
X588168Y-124806D02*
G54D15*
D03*
X999728Y-393888D02*
G54D15*
D03*
X1029890Y-450641D02*
G54D16*
D03*
X999331Y-145047D02*
G54D15*
D03*
X115887Y-183544D02*
G54D17*
D03*
X1029890Y-970547D02*
G54D16*
D03*
X999331Y-215294D02*
G54D15*
D03*
X1029890Y-684004D02*
G54D15*
D03*
X1029890Y-761394D02*
G54D15*
D03*
X1029890Y-847119D02*
G54D15*
D03*
X985440Y-287525D02*
G54D16*
D03*
X1029890Y-609788D02*
G54D16*
D03*
X432594Y-112106D02*
G54D15*
D03*
X280194Y-404206D02*
G54D15*
D03*
X446087Y-232360D02*
G54D15*
D03*
X1034256Y-263713D02*
G54D15*
D03*
X1044575Y-190688D02*
G54D15*
D03*
X565150Y-393094D02*
G54D16*
D03*
X551656Y-730834D02*
G54D16*
D03*
X350837Y-1004282D02*
G54D16*
D03*
X185737Y-1115406D02*
G54D16*
D03*
X205581Y-666144D02*
G54D16*
D03*
X1259681Y-528825D02*
G54D18*
D03*
X564356Y-377219D02*
G54D16*
D03*
X280987Y-1103104D02*
G54D16*
D03*
X538162Y-879663D02*
G54D16*
D03*
X171450Y-721706D02*
G54D16*
D03*
X1181894Y-445482D02*
G54D17*
D03*
X486568Y-430400D02*
G54D16*
D03*
X486568Y-703450D02*
G54D16*
D03*
X617140Y-330388D02*
G54D16*
D03*
X605631Y-677256D02*
G54D16*
D03*
X191294Y-1179700D02*
G54D16*
D03*
X1200944Y-639156D02*
G54D15*
D03*
X171450Y-1471006D02*
G54D19*
D03*
X599281Y-1408300D02*
G54D16*
D03*
X719931Y-1050319D02*
G54D16*
D03*
X950912Y-532794D02*
G54D16*
D03*
X434975Y-960625D02*
G54D16*
D03*
X592931Y-558194D02*
G54D16*
D03*
X593725Y-1203513D02*
G54D16*
D03*
X414337Y-1119375D02*
G54D16*
D03*
X213518Y-595500D02*
G54D16*
D03*
X441325Y-1118582D02*
G54D16*
D03*
X523081Y-719722D02*
G54D16*
D03*
X522684Y-455800D02*
G54D16*
D03*
X537368Y-1087625D02*
G54D16*
D03*
X581025Y-430400D02*
G54D16*
D03*
X581025Y-316894D02*
G54D16*
D03*
X758825Y-1433700D02*
G54D16*
D03*
X457994Y-1256694D02*
G54D16*
D03*
X569515Y-1155094D02*
G54D16*
D03*
X372268Y-1458704D02*
G54D16*
D03*
X158750Y-1356706D02*
G54D16*
D03*
X185340Y-297447D02*
G54D16*
D03*
X384175Y-75594D02*
G54D15*
D03*
X510381Y-781634D02*
G54D16*
D03*
X565547Y-803463D02*
G54D16*
D03*
X565547Y-686782D02*
G54D16*
D03*
X561975Y-1118582D02*
G54D16*
D03*
X561975Y-1071750D02*
G54D16*
D03*
X419894Y-181956D02*
G54D17*
D03*
X734218Y-1005075D02*
G54D16*
D03*
X429418Y-777269D02*
G54D16*
D03*
X754856Y-797906D02*
G54D16*
D03*
X785018Y-732819D02*
G54D16*
D03*
X797718Y-893156D02*
G54D16*
D03*
X797718Y-1005075D02*
G54D15*
D03*
X754856Y-454213D02*
G54D16*
D03*
X785018Y-692338D02*
G54D16*
D03*
X773906Y-241488D02*
G54D16*
D03*
X773906Y-177194D02*
G54D16*
D03*
X754856Y-609391D02*
G54D16*
D03*
X797718Y-1394806D02*
G54D16*
D03*
X719931Y-1388456D02*
G54D16*
D03*
X965200Y-816956D02*
G54D16*
D03*
X912018Y-648682D02*
G54D16*
D03*
X912018Y-536763D02*
G54D16*
D03*
X883444Y-648682D02*
G54D16*
D03*
X931862Y-665747D02*
G54D16*
D03*
X240506Y-909032D02*
G54D16*
D03*
G36*
X326962Y-74738D02*
X342962Y-74738D01*
X342962Y-90738D01*
X326962Y-90738D01*
X326962Y-74738D01*
G37*
X334962Y-57338D02*
G54D20*
D03*
X221456Y-57338D02*
G54D20*
D03*
G36*
X213456Y-74738D02*
X229456Y-74738D01*
X229456Y-90738D01*
X213456Y-90738D01*
X213456Y-74738D01*
G37*
G36*
X408718Y-366044D02*
X424718Y-366044D01*
X424718Y-382044D01*
X408718Y-382044D01*
X408718Y-366044D01*
G37*
X416718Y-348644D02*
G54D20*
D03*
X334168Y-348644D02*
G54D20*
D03*
G36*
X326168Y-366044D02*
X342168Y-366044D01*
X342168Y-382044D01*
X326168Y-382044D01*
X326168Y-366044D01*
G37*
G36*
X465575Y-75238D02*
X480575Y-75238D01*
X480575Y-90238D01*
X465575Y-90238D01*
X465575Y-75238D01*
G37*
X473075Y-57338D02*
G54D21*
D03*
G36*
X756087Y-75238D02*
X771087Y-75238D01*
X771087Y-90238D01*
X756087Y-90238D01*
X756087Y-75238D01*
G37*
X763587Y-57338D02*
G54D22*
D03*
X384175Y-252600D02*
G54D23*
D03*
X384175Y-181956D02*
G54D23*
D03*
X149225Y-376425D02*
G54D24*
D03*
X250031Y-376425D02*
G54D24*
D03*
G36*
X1154112Y-533588D02*
X1100112Y-533588D01*
X1099465Y-533502D01*
X1098862Y-533253D01*
X1098345Y-532856D01*
X1097947Y-532338D01*
X1097698Y-531735D01*
X1097612Y-531088D01*
X1097612Y-479788D01*
X1097698Y-479141D01*
X1097947Y-478538D01*
X1098345Y-478020D01*
X1098862Y-477623D01*
X1099465Y-477373D01*
X1100112Y-477288D01*
X1154112Y-477288D01*
X1154760Y-477373D01*
X1155362Y-477623D01*
X1155880Y-478020D01*
X1156277Y-478538D01*
X1156527Y-479141D01*
X1156612Y-479788D01*
X1156612Y-531088D01*
X1156527Y-531735D01*
X1156277Y-532338D01*
X1155880Y-532856D01*
X1155362Y-533253D01*
X1154760Y-533502D01*
X1154112Y-533588D01*
G37*
G54D25*
X1154112Y-533588D02*
X1100112Y-533588D01*
X1099465Y-533502D01*
X1098862Y-533253D01*
X1098345Y-532856D01*
X1097947Y-532338D01*
X1097698Y-531735D01*
X1097612Y-531088D01*
X1097612Y-479788D01*
X1097698Y-479141D01*
X1097947Y-478538D01*
X1098345Y-478020D01*
X1098862Y-477623D01*
X1099465Y-477373D01*
X1100112Y-477288D01*
X1154112Y-477288D01*
X1154760Y-477373D01*
X1155362Y-477623D01*
X1155880Y-478020D01*
X1156277Y-478538D01*
X1156527Y-479141D01*
X1156612Y-479788D01*
X1156612Y-531088D01*
X1156527Y-531735D01*
X1156277Y-532338D01*
X1155880Y-532856D01*
X1155362Y-533253D01*
X1154760Y-533502D01*
X1154112Y-533588D01*
G36*
X1154112Y-456594D02*
X1100112Y-456594D01*
X1099465Y-456509D01*
X1098862Y-456259D01*
X1098345Y-455862D01*
X1097947Y-455344D01*
X1097698Y-454741D01*
X1097612Y-454094D01*
X1097612Y-402794D01*
X1097698Y-402147D01*
X1097947Y-401544D01*
X1098345Y-401026D01*
X1098862Y-400629D01*
X1099465Y-400379D01*
X1100112Y-400294D01*
X1154112Y-400294D01*
X1154760Y-400379D01*
X1155362Y-400629D01*
X1155880Y-401026D01*
X1156277Y-401544D01*
X1156527Y-402147D01*
X1156612Y-402794D01*
X1156612Y-454094D01*
X1156527Y-454741D01*
X1156277Y-455344D01*
X1155880Y-455862D01*
X1155362Y-456259D01*
X1154760Y-456509D01*
X1154112Y-456594D01*
G37*
G54D25*
X1154112Y-456594D02*
X1100112Y-456594D01*
X1099465Y-456509D01*
X1098862Y-456259D01*
X1098345Y-455862D01*
X1097947Y-455344D01*
X1097698Y-454741D01*
X1097612Y-454094D01*
X1097612Y-402794D01*
X1097698Y-402147D01*
X1097947Y-401544D01*
X1098345Y-401026D01*
X1098862Y-400629D01*
X1099465Y-400379D01*
X1100112Y-400294D01*
X1154112Y-400294D01*
X1154760Y-400379D01*
X1155362Y-400629D01*
X1155880Y-401026D01*
X1156277Y-401544D01*
X1156527Y-402147D01*
X1156612Y-402794D01*
X1156612Y-454094D01*
X1156527Y-454741D01*
X1156277Y-455344D01*
X1155880Y-455862D01*
X1155362Y-456259D01*
X1154760Y-456509D01*
X1154112Y-456594D01*
G36*
X1154112Y-689163D02*
X1100112Y-689163D01*
X1099465Y-689078D01*
X1098862Y-688828D01*
X1098345Y-688430D01*
X1097947Y-687913D01*
X1097698Y-687310D01*
X1097612Y-686662D01*
X1097612Y-635363D01*
X1097698Y-634716D01*
X1097947Y-634112D01*
X1098345Y-633595D01*
X1098862Y-633198D01*
X1099465Y-632948D01*
X1100112Y-632862D01*
X1154112Y-632862D01*
X1154760Y-632948D01*
X1155362Y-633198D01*
X1155880Y-633595D01*
X1156277Y-634112D01*
X1156527Y-634716D01*
X1156612Y-635363D01*
X1156612Y-686662D01*
X1156527Y-687310D01*
X1156277Y-687913D01*
X1155880Y-688430D01*
X1155362Y-688828D01*
X1154760Y-689078D01*
X1154112Y-689163D01*
G37*
G54D25*
X1154112Y-689163D02*
X1100112Y-689163D01*
X1099465Y-689078D01*
X1098862Y-688828D01*
X1098345Y-688430D01*
X1097947Y-687913D01*
X1097698Y-687310D01*
X1097612Y-686662D01*
X1097612Y-635363D01*
X1097698Y-634716D01*
X1097947Y-634112D01*
X1098345Y-633595D01*
X1098862Y-633198D01*
X1099465Y-632948D01*
X1100112Y-632862D01*
X1154112Y-632862D01*
X1154760Y-632948D01*
X1155362Y-633198D01*
X1155880Y-633595D01*
X1156277Y-634112D01*
X1156527Y-634716D01*
X1156612Y-635363D01*
X1156612Y-686662D01*
X1156527Y-687310D01*
X1156277Y-687913D01*
X1155880Y-688430D01*
X1155362Y-688828D01*
X1154760Y-689078D01*
X1154112Y-689163D01*
G36*
X1154112Y-611375D02*
X1100112Y-611375D01*
X1099465Y-611290D01*
X1098862Y-611040D01*
X1098345Y-610643D01*
X1097947Y-610126D01*
X1097698Y-609522D01*
X1097612Y-608875D01*
X1097612Y-557575D01*
X1097698Y-556928D01*
X1097947Y-556325D01*
X1098345Y-555808D01*
X1098862Y-555410D01*
X1099465Y-555160D01*
X1100112Y-555075D01*
X1154112Y-555075D01*
X1154760Y-555160D01*
X1155362Y-555410D01*
X1155880Y-555808D01*
X1156277Y-556325D01*
X1156527Y-556928D01*
X1156612Y-557575D01*
X1156612Y-608875D01*
X1156527Y-609522D01*
X1156277Y-610126D01*
X1155880Y-610643D01*
X1155362Y-611040D01*
X1154760Y-611290D01*
X1154112Y-611375D01*
G37*
G54D25*
X1154112Y-611375D02*
X1100112Y-611375D01*
X1099465Y-611290D01*
X1098862Y-611040D01*
X1098345Y-610643D01*
X1097947Y-610126D01*
X1097698Y-609522D01*
X1097612Y-608875D01*
X1097612Y-557575D01*
X1097698Y-556928D01*
X1097947Y-556325D01*
X1098345Y-555808D01*
X1098862Y-555410D01*
X1099465Y-555160D01*
X1100112Y-555075D01*
X1154112Y-555075D01*
X1154760Y-555160D01*
X1155362Y-555410D01*
X1155880Y-555808D01*
X1156277Y-556325D01*
X1156527Y-556928D01*
X1156612Y-557575D01*
X1156612Y-608875D01*
X1156527Y-609522D01*
X1156277Y-610126D01*
X1155880Y-610643D01*
X1155362Y-611040D01*
X1154760Y-611290D01*
X1154112Y-611375D01*
G36*
X1154112Y-844738D02*
X1100112Y-844738D01*
X1099465Y-844652D01*
X1098862Y-844403D01*
X1098345Y-844006D01*
X1097947Y-843488D01*
X1097698Y-842885D01*
X1097612Y-842238D01*
X1097612Y-790938D01*
X1097698Y-790290D01*
X1097947Y-789688D01*
X1098345Y-789170D01*
X1098862Y-788773D01*
X1099465Y-788523D01*
X1100112Y-788438D01*
X1154112Y-788438D01*
X1154760Y-788523D01*
X1155362Y-788773D01*
X1155880Y-789170D01*
X1156277Y-789688D01*
X1156527Y-790290D01*
X1156612Y-790938D01*
X1156612Y-842238D01*
X1156527Y-842885D01*
X1156277Y-843488D01*
X1155880Y-844006D01*
X1155362Y-844403D01*
X1154760Y-844652D01*
X1154112Y-844738D01*
G37*
G54D25*
X1154112Y-844738D02*
X1100112Y-844738D01*
X1099465Y-844652D01*
X1098862Y-844403D01*
X1098345Y-844006D01*
X1097947Y-843488D01*
X1097698Y-842885D01*
X1097612Y-842238D01*
X1097612Y-790938D01*
X1097698Y-790290D01*
X1097947Y-789688D01*
X1098345Y-789170D01*
X1098862Y-788773D01*
X1099465Y-788523D01*
X1100112Y-788438D01*
X1154112Y-788438D01*
X1154760Y-788523D01*
X1155362Y-788773D01*
X1155880Y-789170D01*
X1156277Y-789688D01*
X1156527Y-790290D01*
X1156612Y-790938D01*
X1156612Y-842238D01*
X1156527Y-842885D01*
X1156277Y-843488D01*
X1155880Y-844006D01*
X1155362Y-844403D01*
X1154760Y-844652D01*
X1154112Y-844738D01*
G36*
X1154112Y-766950D02*
X1100112Y-766950D01*
X1099465Y-766865D01*
X1098862Y-766615D01*
X1098345Y-766218D01*
X1097947Y-765700D01*
X1097698Y-765098D01*
X1097612Y-764450D01*
X1097612Y-713150D01*
X1097698Y-712503D01*
X1097947Y-711900D01*
X1098345Y-711382D01*
X1098862Y-710985D01*
X1099465Y-710736D01*
X1100112Y-710650D01*
X1154112Y-710650D01*
X1154760Y-710736D01*
X1155362Y-710985D01*
X1155880Y-711382D01*
X1156277Y-711900D01*
X1156527Y-712503D01*
X1156612Y-713150D01*
X1156612Y-764450D01*
X1156527Y-765098D01*
X1156277Y-765700D01*
X1155880Y-766218D01*
X1155362Y-766615D01*
X1154760Y-766865D01*
X1154112Y-766950D01*
G37*
G54D25*
X1154112Y-766950D02*
X1100112Y-766950D01*
X1099465Y-766865D01*
X1098862Y-766615D01*
X1098345Y-766218D01*
X1097947Y-765700D01*
X1097698Y-765098D01*
X1097612Y-764450D01*
X1097612Y-713150D01*
X1097698Y-712503D01*
X1097947Y-711900D01*
X1098345Y-711382D01*
X1098862Y-710985D01*
X1099465Y-710736D01*
X1100112Y-710650D01*
X1154112Y-710650D01*
X1154760Y-710736D01*
X1155362Y-710985D01*
X1155880Y-711382D01*
X1156277Y-711900D01*
X1156527Y-712503D01*
X1156612Y-713150D01*
X1156612Y-764450D01*
X1156527Y-765098D01*
X1156277Y-765700D01*
X1155880Y-766218D01*
X1155362Y-766615D01*
X1154760Y-766865D01*
X1154112Y-766950D01*
G36*
X1154112Y-1000313D02*
X1100112Y-1000313D01*
X1099465Y-1000228D01*
X1098862Y-999978D01*
X1098345Y-999580D01*
X1097947Y-999063D01*
X1097698Y-998460D01*
X1097612Y-997813D01*
X1097612Y-946513D01*
X1097698Y-945866D01*
X1097947Y-945262D01*
X1098345Y-944745D01*
X1098862Y-944348D01*
X1099465Y-944098D01*
X1100112Y-944013D01*
X1154112Y-944013D01*
X1154760Y-944098D01*
X1155362Y-944348D01*
X1155880Y-944745D01*
X1156277Y-945262D01*
X1156527Y-945866D01*
X1156612Y-946513D01*
X1156612Y-997813D01*
X1156527Y-998460D01*
X1156277Y-999063D01*
X1155880Y-999580D01*
X1155362Y-999978D01*
X1154760Y-1000228D01*
X1154112Y-1000313D01*
G37*
G54D25*
X1154112Y-1000313D02*
X1100112Y-1000313D01*
X1099465Y-1000228D01*
X1098862Y-999978D01*
X1098345Y-999580D01*
X1097947Y-999063D01*
X1097698Y-998460D01*
X1097612Y-997813D01*
X1097612Y-946513D01*
X1097698Y-945866D01*
X1097947Y-945262D01*
X1098345Y-944745D01*
X1098862Y-944348D01*
X1099465Y-944098D01*
X1100112Y-944013D01*
X1154112Y-944013D01*
X1154760Y-944098D01*
X1155362Y-944348D01*
X1155880Y-944745D01*
X1156277Y-945262D01*
X1156527Y-945866D01*
X1156612Y-946513D01*
X1156612Y-997813D01*
X1156527Y-998460D01*
X1156277Y-999063D01*
X1155880Y-999580D01*
X1155362Y-999978D01*
X1154760Y-1000228D01*
X1154112Y-1000313D01*
G36*
X1154112Y-923319D02*
X1100112Y-923319D01*
X1099465Y-923234D01*
X1098862Y-922984D01*
X1098345Y-922587D01*
X1097947Y-922069D01*
X1097698Y-921466D01*
X1097612Y-920819D01*
X1097612Y-869519D01*
X1097698Y-868872D01*
X1097947Y-868269D01*
X1098345Y-867751D01*
X1098862Y-867354D01*
X1099465Y-867104D01*
X1100112Y-867019D01*
X1154112Y-867019D01*
X1154760Y-867104D01*
X1155362Y-867354D01*
X1155880Y-867751D01*
X1156277Y-868269D01*
X1156527Y-868872D01*
X1156612Y-869519D01*
X1156612Y-920819D01*
X1156527Y-921466D01*
X1156277Y-922069D01*
X1155880Y-922587D01*
X1155362Y-922984D01*
X1154760Y-923234D01*
X1154112Y-923319D01*
G37*
G54D25*
X1154112Y-923319D02*
X1100112Y-923319D01*
X1099465Y-923234D01*
X1098862Y-922984D01*
X1098345Y-922587D01*
X1097947Y-922069D01*
X1097698Y-921466D01*
X1097612Y-920819D01*
X1097612Y-869519D01*
X1097698Y-868872D01*
X1097947Y-868269D01*
X1098345Y-867751D01*
X1098862Y-867354D01*
X1099465Y-867104D01*
X1100112Y-867019D01*
X1154112Y-867019D01*
X1154760Y-867104D01*
X1155362Y-867354D01*
X1155880Y-867751D01*
X1156277Y-868269D01*
X1156527Y-868872D01*
X1156612Y-869519D01*
X1156612Y-920819D01*
X1156527Y-921466D01*
X1156277Y-922069D01*
X1155880Y-922587D01*
X1155362Y-922984D01*
X1154760Y-923234D01*
X1154112Y-923319D01*
G36*
X1154112Y-1155094D02*
X1100112Y-1155094D01*
X1099465Y-1155008D01*
X1098862Y-1154759D01*
X1098345Y-1154362D01*
X1097947Y-1153844D01*
X1097698Y-1153241D01*
X1097612Y-1152594D01*
X1097612Y-1101294D01*
X1097698Y-1100647D01*
X1097947Y-1100044D01*
X1098345Y-1099526D01*
X1098862Y-1099129D01*
X1099465Y-1098879D01*
X1100112Y-1098794D01*
X1154112Y-1098794D01*
X1154760Y-1098879D01*
X1155362Y-1099129D01*
X1155880Y-1099526D01*
X1156277Y-1100044D01*
X1156527Y-1100647D01*
X1156612Y-1101294D01*
X1156612Y-1152594D01*
X1156527Y-1153241D01*
X1156277Y-1153844D01*
X1155880Y-1154362D01*
X1155362Y-1154759D01*
X1154760Y-1155008D01*
X1154112Y-1155094D01*
G37*
G54D25*
X1154112Y-1155094D02*
X1100112Y-1155094D01*
X1099465Y-1155008D01*
X1098862Y-1154759D01*
X1098345Y-1154362D01*
X1097947Y-1153844D01*
X1097698Y-1153241D01*
X1097612Y-1152594D01*
X1097612Y-1101294D01*
X1097698Y-1100647D01*
X1097947Y-1100044D01*
X1098345Y-1099526D01*
X1098862Y-1099129D01*
X1099465Y-1098879D01*
X1100112Y-1098794D01*
X1154112Y-1098794D01*
X1154760Y-1098879D01*
X1155362Y-1099129D01*
X1155880Y-1099526D01*
X1156277Y-1100044D01*
X1156527Y-1100647D01*
X1156612Y-1101294D01*
X1156612Y-1152594D01*
X1156527Y-1153241D01*
X1156277Y-1153844D01*
X1155880Y-1154362D01*
X1155362Y-1154759D01*
X1154760Y-1155008D01*
X1154112Y-1155094D01*
G36*
X1154112Y-1078100D02*
X1100112Y-1078100D01*
X1099465Y-1078015D01*
X1098862Y-1077765D01*
X1098345Y-1077368D01*
X1097947Y-1076850D01*
X1097698Y-1076247D01*
X1097612Y-1075600D01*
X1097612Y-1024300D01*
X1097698Y-1023653D01*
X1097947Y-1023050D01*
X1098345Y-1022532D01*
X1098862Y-1022135D01*
X1099465Y-1021886D01*
X1100112Y-1021800D01*
X1154112Y-1021800D01*
X1154760Y-1021886D01*
X1155362Y-1022135D01*
X1155880Y-1022532D01*
X1156277Y-1023050D01*
X1156527Y-1023653D01*
X1156612Y-1024300D01*
X1156612Y-1075600D01*
X1156527Y-1076247D01*
X1156277Y-1076850D01*
X1155880Y-1077368D01*
X1155362Y-1077765D01*
X1154760Y-1078015D01*
X1154112Y-1078100D01*
G37*
G54D25*
X1154112Y-1078100D02*
X1100112Y-1078100D01*
X1099465Y-1078015D01*
X1098862Y-1077765D01*
X1098345Y-1077368D01*
X1097947Y-1076850D01*
X1097698Y-1076247D01*
X1097612Y-1075600D01*
X1097612Y-1024300D01*
X1097698Y-1023653D01*
X1097947Y-1023050D01*
X1098345Y-1022532D01*
X1098862Y-1022135D01*
X1099465Y-1021886D01*
X1100112Y-1021800D01*
X1154112Y-1021800D01*
X1154760Y-1021886D01*
X1155362Y-1022135D01*
X1155880Y-1022532D01*
X1156277Y-1023050D01*
X1156527Y-1023653D01*
X1156612Y-1024300D01*
X1156612Y-1075600D01*
X1156527Y-1076247D01*
X1156277Y-1076850D01*
X1155880Y-1077368D01*
X1155362Y-1077765D01*
X1154760Y-1078015D01*
X1154112Y-1078100D01*
G36*
X1154112Y-1310669D02*
X1100112Y-1310669D01*
X1099465Y-1310584D01*
X1098862Y-1310334D01*
X1098345Y-1309937D01*
X1097947Y-1309419D01*
X1097698Y-1308816D01*
X1097612Y-1308169D01*
X1097612Y-1256869D01*
X1097698Y-1256222D01*
X1097947Y-1255619D01*
X1098345Y-1255101D01*
X1098862Y-1254704D01*
X1099465Y-1254454D01*
X1100112Y-1254369D01*
X1154112Y-1254369D01*
X1154760Y-1254454D01*
X1155362Y-1254704D01*
X1155880Y-1255101D01*
X1156277Y-1255619D01*
X1156527Y-1256222D01*
X1156612Y-1256869D01*
X1156612Y-1308169D01*
X1156527Y-1308816D01*
X1156277Y-1309419D01*
X1155880Y-1309937D01*
X1155362Y-1310334D01*
X1154760Y-1310584D01*
X1154112Y-1310669D01*
G37*
G54D25*
X1154112Y-1310669D02*
X1100112Y-1310669D01*
X1099465Y-1310584D01*
X1098862Y-1310334D01*
X1098345Y-1309937D01*
X1097947Y-1309419D01*
X1097698Y-1308816D01*
X1097612Y-1308169D01*
X1097612Y-1256869D01*
X1097698Y-1256222D01*
X1097947Y-1255619D01*
X1098345Y-1255101D01*
X1098862Y-1254704D01*
X1099465Y-1254454D01*
X1100112Y-1254369D01*
X1154112Y-1254369D01*
X1154760Y-1254454D01*
X1155362Y-1254704D01*
X1155880Y-1255101D01*
X1156277Y-1255619D01*
X1156527Y-1256222D01*
X1156612Y-1256869D01*
X1156612Y-1308169D01*
X1156527Y-1308816D01*
X1156277Y-1309419D01*
X1155880Y-1309937D01*
X1155362Y-1310334D01*
X1154760Y-1310584D01*
X1154112Y-1310669D01*
G36*
X1154112Y-1233675D02*
X1100112Y-1233675D01*
X1099465Y-1233590D01*
X1098862Y-1233340D01*
X1098345Y-1232943D01*
X1097947Y-1232425D01*
X1097698Y-1231822D01*
X1097612Y-1231175D01*
X1097612Y-1179875D01*
X1097698Y-1179228D01*
X1097947Y-1178625D01*
X1098345Y-1178108D01*
X1098862Y-1177710D01*
X1099465Y-1177460D01*
X1100112Y-1177375D01*
X1154112Y-1177375D01*
X1154760Y-1177460D01*
X1155362Y-1177710D01*
X1155880Y-1178108D01*
X1156277Y-1178625D01*
X1156527Y-1179228D01*
X1156612Y-1179875D01*
X1156612Y-1231175D01*
X1156527Y-1231822D01*
X1156277Y-1232425D01*
X1155880Y-1232943D01*
X1155362Y-1233340D01*
X1154760Y-1233590D01*
X1154112Y-1233675D01*
G37*
G54D25*
X1154112Y-1233675D02*
X1100112Y-1233675D01*
X1099465Y-1233590D01*
X1098862Y-1233340D01*
X1098345Y-1232943D01*
X1097947Y-1232425D01*
X1097698Y-1231822D01*
X1097612Y-1231175D01*
X1097612Y-1179875D01*
X1097698Y-1179228D01*
X1097947Y-1178625D01*
X1098345Y-1178108D01*
X1098862Y-1177710D01*
X1099465Y-1177460D01*
X1100112Y-1177375D01*
X1154112Y-1177375D01*
X1154760Y-1177460D01*
X1155362Y-1177710D01*
X1155880Y-1178108D01*
X1156277Y-1178625D01*
X1156527Y-1179228D01*
X1156612Y-1179875D01*
X1156612Y-1231175D01*
X1156527Y-1231822D01*
X1156277Y-1232425D01*
X1155880Y-1232943D01*
X1155362Y-1233340D01*
X1154760Y-1233590D01*
X1154112Y-1233675D01*
G36*
X1154112Y-1466244D02*
X1100112Y-1466244D01*
X1099465Y-1466158D01*
X1098862Y-1465909D01*
X1098345Y-1465512D01*
X1097947Y-1464994D01*
X1097698Y-1464391D01*
X1097612Y-1463744D01*
X1097612Y-1412444D01*
X1097698Y-1411797D01*
X1097947Y-1411194D01*
X1098345Y-1410676D01*
X1098862Y-1410279D01*
X1099465Y-1410029D01*
X1100112Y-1409944D01*
X1154112Y-1409944D01*
X1154760Y-1410029D01*
X1155362Y-1410279D01*
X1155880Y-1410676D01*
X1156277Y-1411194D01*
X1156527Y-1411797D01*
X1156612Y-1412444D01*
X1156612Y-1463744D01*
X1156527Y-1464391D01*
X1156277Y-1464994D01*
X1155880Y-1465512D01*
X1155362Y-1465909D01*
X1154760Y-1466158D01*
X1154112Y-1466244D01*
G37*
G54D25*
X1154112Y-1466244D02*
X1100112Y-1466244D01*
X1099465Y-1466158D01*
X1098862Y-1465909D01*
X1098345Y-1465512D01*
X1097947Y-1464994D01*
X1097698Y-1464391D01*
X1097612Y-1463744D01*
X1097612Y-1412444D01*
X1097698Y-1411797D01*
X1097947Y-1411194D01*
X1098345Y-1410676D01*
X1098862Y-1410279D01*
X1099465Y-1410029D01*
X1100112Y-1409944D01*
X1154112Y-1409944D01*
X1154760Y-1410029D01*
X1155362Y-1410279D01*
X1155880Y-1410676D01*
X1156277Y-1411194D01*
X1156527Y-1411797D01*
X1156612Y-1412444D01*
X1156612Y-1463744D01*
X1156527Y-1464391D01*
X1156277Y-1464994D01*
X1155880Y-1465512D01*
X1155362Y-1465909D01*
X1154760Y-1466158D01*
X1154112Y-1466244D01*
G36*
X1154112Y-1388456D02*
X1100112Y-1388456D01*
X1099465Y-1388371D01*
X1098862Y-1388122D01*
X1098345Y-1387724D01*
X1097947Y-1387206D01*
X1097698Y-1386604D01*
X1097612Y-1385956D01*
X1097612Y-1334656D01*
X1097698Y-1334009D01*
X1097947Y-1333406D01*
X1098345Y-1332888D01*
X1098862Y-1332492D01*
X1099465Y-1332242D01*
X1100112Y-1332156D01*
X1154112Y-1332156D01*
X1154760Y-1332242D01*
X1155362Y-1332492D01*
X1155880Y-1332888D01*
X1156277Y-1333406D01*
X1156527Y-1334009D01*
X1156612Y-1334656D01*
X1156612Y-1385956D01*
X1156527Y-1386604D01*
X1156277Y-1387206D01*
X1155880Y-1387724D01*
X1155362Y-1388122D01*
X1154760Y-1388371D01*
X1154112Y-1388456D01*
G37*
G54D25*
X1154112Y-1388456D02*
X1100112Y-1388456D01*
X1099465Y-1388371D01*
X1098862Y-1388122D01*
X1098345Y-1387724D01*
X1097947Y-1387206D01*
X1097698Y-1386604D01*
X1097612Y-1385956D01*
X1097612Y-1334656D01*
X1097698Y-1334009D01*
X1097947Y-1333406D01*
X1098345Y-1332888D01*
X1098862Y-1332492D01*
X1099465Y-1332242D01*
X1100112Y-1332156D01*
X1154112Y-1332156D01*
X1154760Y-1332242D01*
X1155362Y-1332492D01*
X1155880Y-1332888D01*
X1156277Y-1333406D01*
X1156527Y-1334009D01*
X1156612Y-1334656D01*
X1156612Y-1385956D01*
X1156527Y-1386604D01*
X1156277Y-1387206D01*
X1155880Y-1387724D01*
X1155362Y-1388122D01*
X1154760Y-1388371D01*
X1154112Y-1388456D01*
G36*
X1154112Y-224025D02*
X1100112Y-224025D01*
X1099465Y-223940D01*
X1098862Y-223690D01*
X1098345Y-223293D01*
X1097947Y-222775D01*
X1097698Y-222172D01*
X1097612Y-221525D01*
X1097612Y-170225D01*
X1097698Y-169578D01*
X1097947Y-168975D01*
X1098345Y-168457D01*
X1098862Y-168060D01*
X1099465Y-167810D01*
X1100112Y-167725D01*
X1154112Y-167725D01*
X1154760Y-167810D01*
X1155362Y-168060D01*
X1155880Y-168457D01*
X1156277Y-168975D01*
X1156527Y-169578D01*
X1156612Y-170225D01*
X1156612Y-221525D01*
X1156527Y-222172D01*
X1156277Y-222775D01*
X1155880Y-223293D01*
X1155362Y-223690D01*
X1154760Y-223940D01*
X1154112Y-224025D01*
G37*
G54D25*
X1154112Y-224025D02*
X1100112Y-224025D01*
X1099465Y-223940D01*
X1098862Y-223690D01*
X1098345Y-223293D01*
X1097947Y-222775D01*
X1097698Y-222172D01*
X1097612Y-221525D01*
X1097612Y-170225D01*
X1097698Y-169578D01*
X1097947Y-168975D01*
X1098345Y-168457D01*
X1098862Y-168060D01*
X1099465Y-167810D01*
X1100112Y-167725D01*
X1154112Y-167725D01*
X1154760Y-167810D01*
X1155362Y-168060D01*
X1155880Y-168457D01*
X1156277Y-168975D01*
X1156527Y-169578D01*
X1156612Y-170225D01*
X1156612Y-221525D01*
X1156527Y-222172D01*
X1156277Y-222775D01*
X1155880Y-223293D01*
X1155362Y-223690D01*
X1154760Y-223940D01*
X1154112Y-224025D01*
G36*
X1154112Y-301813D02*
X1100112Y-301813D01*
X1099465Y-301727D01*
X1098862Y-301478D01*
X1098345Y-301080D01*
X1097947Y-300563D01*
X1097698Y-299960D01*
X1097612Y-299313D01*
X1097612Y-248013D01*
X1097698Y-247366D01*
X1097947Y-246763D01*
X1098345Y-246245D01*
X1098862Y-245848D01*
X1099465Y-245598D01*
X1100112Y-245513D01*
X1154112Y-245513D01*
X1154760Y-245598D01*
X1155362Y-245848D01*
X1155880Y-246245D01*
X1156277Y-246763D01*
X1156527Y-247366D01*
X1156612Y-248013D01*
X1156612Y-299313D01*
X1156527Y-299960D01*
X1156277Y-300563D01*
X1155880Y-301080D01*
X1155362Y-301478D01*
X1154760Y-301727D01*
X1154112Y-301813D01*
G37*
G54D25*
X1154112Y-301813D02*
X1100112Y-301813D01*
X1099465Y-301727D01*
X1098862Y-301478D01*
X1098345Y-301080D01*
X1097947Y-300563D01*
X1097698Y-299960D01*
X1097612Y-299313D01*
X1097612Y-248013D01*
X1097698Y-247366D01*
X1097947Y-246763D01*
X1098345Y-246245D01*
X1098862Y-245848D01*
X1099465Y-245598D01*
X1100112Y-245513D01*
X1154112Y-245513D01*
X1154760Y-245598D01*
X1155362Y-245848D01*
X1155880Y-246245D01*
X1156277Y-246763D01*
X1156527Y-247366D01*
X1156612Y-248013D01*
X1156612Y-299313D01*
X1156527Y-299960D01*
X1156277Y-300563D01*
X1155880Y-301080D01*
X1155362Y-301478D01*
X1154760Y-301727D01*
X1154112Y-301813D01*
G36*
X1154112Y-378806D02*
X1100112Y-378806D01*
X1099465Y-378721D01*
X1098862Y-378472D01*
X1098345Y-378074D01*
X1097947Y-377556D01*
X1097698Y-376954D01*
X1097612Y-376306D01*
X1097612Y-325006D01*
X1097698Y-324359D01*
X1097947Y-323756D01*
X1098345Y-323239D01*
X1098862Y-322841D01*
X1099465Y-322592D01*
X1100112Y-322506D01*
X1154112Y-322506D01*
X1154760Y-322592D01*
X1155362Y-322841D01*
X1155880Y-323239D01*
X1156277Y-323756D01*
X1156527Y-324359D01*
X1156612Y-325006D01*
X1156612Y-376306D01*
X1156527Y-376954D01*
X1156277Y-377556D01*
X1155880Y-378074D01*
X1155362Y-378472D01*
X1154760Y-378721D01*
X1154112Y-378806D01*
G37*
G54D25*
X1154112Y-378806D02*
X1100112Y-378806D01*
X1099465Y-378721D01*
X1098862Y-378472D01*
X1098345Y-378074D01*
X1097947Y-377556D01*
X1097698Y-376954D01*
X1097612Y-376306D01*
X1097612Y-325006D01*
X1097698Y-324359D01*
X1097947Y-323756D01*
X1098345Y-323239D01*
X1098862Y-322841D01*
X1099465Y-322592D01*
X1100112Y-322506D01*
X1154112Y-322506D01*
X1154760Y-322592D01*
X1155362Y-322841D01*
X1155880Y-323239D01*
X1156277Y-323756D01*
X1156527Y-324359D01*
X1156612Y-325006D01*
X1156612Y-376306D01*
X1156527Y-376954D01*
X1156277Y-377556D01*
X1155880Y-378074D01*
X1155362Y-378472D01*
X1154760Y-378721D01*
X1154112Y-378806D01*
X202406Y-788382D02*
G54D26*
D03*
X145256Y-788382D02*
G54D26*
D03*
X145256Y-751869D02*
G54D26*
D03*
X202406Y-751869D02*
G54D26*
D03*
X202406Y-874106D02*
G54D26*
D03*
X145256Y-874106D02*
G54D26*
D03*
X145256Y-837594D02*
G54D26*
D03*
X202406Y-837594D02*
G54D26*
D03*
X148431Y-183544D02*
G54D27*
D03*
X148431Y-200213D02*
G54D27*
D03*
X148431Y-216882D02*
G54D27*
D03*
X148431Y-234344D02*
G54D27*
D03*
X148431Y-251013D02*
G54D27*
D03*
X247650Y-216882D02*
G54D28*
D03*
X146050Y-963006D02*
G54D29*
D03*
X146050Y-988406D02*
G54D29*
D03*
X146050Y-1013806D02*
G54D29*
D03*
X146050Y-1039206D02*
G54D29*
D03*
X146050Y-1064606D02*
G54D29*
D03*
X146050Y-1090006D02*
G54D29*
D03*
X146050Y-1115406D02*
G54D29*
D03*
X146050Y-1140806D02*
G54D29*
D03*
X146050Y-1166206D02*
G54D29*
D03*
X146050Y-1191606D02*
G54D29*
D03*
X146050Y-1217006D02*
G54D29*
D03*
X146050Y-1242406D02*
G54D29*
D03*
X146050Y-1267806D02*
G54D29*
D03*
X146050Y-1293206D02*
G54D29*
D03*
X146050Y-1318606D02*
G54D29*
D03*
X146050Y-1344006D02*
G54D29*
D03*
X146050Y-1369406D02*
G54D29*
D03*
X146050Y-1394806D02*
G54D29*
D03*
X146050Y-1420206D02*
G54D29*
D03*
X146050Y-1445606D02*
G54D29*
D03*
X146050Y-1471006D02*
G54D29*
D03*
X171450Y-1445606D02*
G54D19*
D03*
X171450Y-1420206D02*
G54D19*
D03*
X171450Y-1394806D02*
G54D19*
D03*
X171450Y-1369406D02*
G54D19*
D03*
X171450Y-1344006D02*
G54D19*
D03*
X171450Y-1318606D02*
G54D19*
D03*
X171450Y-1293206D02*
G54D19*
D03*
X171450Y-1267806D02*
G54D19*
D03*
X171450Y-1242406D02*
G54D19*
D03*
X171450Y-1217006D02*
G54D19*
D03*
X171450Y-1191606D02*
G54D19*
D03*
X171450Y-1166206D02*
G54D19*
D03*
X171450Y-1140806D02*
G54D19*
D03*
X171450Y-1115406D02*
G54D19*
D03*
X171450Y-1090006D02*
G54D19*
D03*
X171450Y-1064606D02*
G54D19*
D03*
X171450Y-1039206D02*
G54D19*
D03*
X171450Y-1013806D02*
G54D19*
D03*
X171450Y-988406D02*
G54D19*
D03*
X171450Y-963006D02*
G54D19*
D03*
X476250Y-1090006D02*
G54D29*
D03*
X476250Y-1115406D02*
G54D29*
D03*
X476250Y-1140806D02*
G54D29*
D03*
X476250Y-1166206D02*
G54D29*
D03*
X476250Y-1191606D02*
G54D29*
D03*
X476250Y-1217006D02*
G54D29*
D03*
X476250Y-1242406D02*
G54D29*
D03*
X476250Y-1267806D02*
G54D29*
D03*
X476250Y-1293206D02*
G54D29*
D03*
X476250Y-1318606D02*
G54D29*
D03*
X476250Y-1344006D02*
G54D29*
D03*
X476250Y-1369406D02*
G54D29*
D03*
X476250Y-1394806D02*
G54D29*
D03*
X476250Y-1420206D02*
G54D29*
D03*
X475456Y-1445606D02*
G54D29*
D03*
X476250Y-1471006D02*
G54D29*
D03*
X501650Y-1471006D02*
G54D29*
D03*
X501650Y-1445606D02*
G54D29*
D03*
X501650Y-1420206D02*
G54D29*
D03*
X501650Y-1394806D02*
G54D29*
D03*
X501650Y-1369406D02*
G54D29*
D03*
X501650Y-1344006D02*
G54D29*
D03*
X501650Y-1318606D02*
G54D29*
D03*
X501650Y-1293206D02*
G54D29*
D03*
X501650Y-1267806D02*
G54D29*
D03*
X501650Y-1242406D02*
G54D29*
D03*
X501650Y-1217006D02*
G54D29*
D03*
X501650Y-1191606D02*
G54D29*
D03*
X501650Y-1166206D02*
G54D29*
D03*
X501650Y-1140806D02*
G54D29*
D03*
X501650Y-1115406D02*
G54D29*
D03*
X501650Y-1090006D02*
G54D29*
D03*
X400050Y-1471006D02*
G54D29*
D03*
X425450Y-1471006D02*
G54D29*
D03*
X450850Y-1471006D02*
G54D29*
D03*
X450850Y-1445606D02*
G54D29*
D03*
X425450Y-1445606D02*
G54D29*
D03*
X400050Y-1445606D02*
G54D29*
D03*
G36*
X299681Y-769769D02*
X314681Y-769769D01*
X314681Y-784769D01*
X299681Y-784769D01*
X299681Y-769769D01*
G37*
X307181Y-802669D02*
G54D30*
D03*
X307181Y-828069D02*
G54D30*
D03*
X307181Y-853469D02*
G54D30*
D03*
X281781Y-777269D02*
G54D30*
D03*
X281781Y-802669D02*
G54D30*
D03*
X281781Y-828069D02*
G54D30*
D03*
X281781Y-853469D02*
G54D30*
D03*
G36*
X1272962Y-176188D02*
X1301962Y-176188D01*
X1301962Y-205188D01*
X1272962Y-205188D01*
X1272962Y-176188D01*
G37*
X1287462Y-232756D02*
G54D31*
D03*
X1287462Y-274825D02*
G54D31*
D03*
X1287462Y-316894D02*
G54D31*
D03*
X1232694Y-190688D02*
G54D31*
D03*
X1232694Y-232756D02*
G54D31*
D03*
X1232694Y-274825D02*
G54D31*
D03*
X1232694Y-316894D02*
G54D31*
D03*
G36*
X1272168Y-373038D02*
X1301168Y-373038D01*
X1301168Y-402038D01*
X1272168Y-402038D01*
X1272168Y-373038D01*
G37*
X1286668Y-429606D02*
G54D31*
D03*
X1286668Y-471675D02*
G54D31*
D03*
X1286668Y-513744D02*
G54D31*
D03*
X1231900Y-387538D02*
G54D31*
D03*
X1231900Y-429606D02*
G54D31*
D03*
X1231900Y-471675D02*
G54D31*
D03*
X1231900Y-513744D02*
G54D31*
D03*
G36*
X979131Y-71269D02*
X994131Y-71269D01*
X994131Y-86269D01*
X979131Y-86269D01*
X979131Y-71269D01*
G37*
X1006475Y-78769D02*
G54D21*
D03*
G36*
X871181Y-71269D02*
X886181Y-71269D01*
X886181Y-86269D01*
X871181Y-86269D01*
X871181Y-71269D01*
G37*
X898525Y-78769D02*
G54D21*
D03*
G36*
X1272168Y-601638D02*
X1301168Y-601638D01*
X1301168Y-630638D01*
X1272168Y-630638D01*
X1272168Y-601638D01*
G37*
X1286668Y-658206D02*
G54D31*
D03*
X1231900Y-616138D02*
G54D31*
D03*
X1231900Y-658206D02*
G54D31*
D03*
G36*
X1272168Y-715938D02*
X1301168Y-715938D01*
X1301168Y-744938D01*
X1272168Y-744938D01*
X1272168Y-715938D01*
G37*
X1286668Y-772506D02*
G54D31*
D03*
X1231900Y-730438D02*
G54D31*
D03*
X1231900Y-772506D02*
G54D31*
D03*
G36*
X1272168Y-861988D02*
X1301168Y-861988D01*
X1301168Y-890988D01*
X1272168Y-890988D01*
X1272168Y-861988D01*
G37*
X1286668Y-918556D02*
G54D31*
D03*
X1231900Y-876488D02*
G54D31*
D03*
X1231900Y-918556D02*
G54D31*
D03*
G36*
X1272168Y-976288D02*
X1301168Y-976288D01*
X1301168Y-1005288D01*
X1272168Y-1005288D01*
X1272168Y-976288D01*
G37*
X1286668Y-1032856D02*
G54D31*
D03*
X1231900Y-990788D02*
G54D31*
D03*
X1231900Y-1032856D02*
G54D31*
D03*
G36*
X1272168Y-1408088D02*
X1301168Y-1408088D01*
X1301168Y-1437088D01*
X1272168Y-1437088D01*
X1272168Y-1408088D01*
G37*
X1286668Y-1464656D02*
G54D31*
D03*
X1231900Y-1422588D02*
G54D31*
D03*
X1231900Y-1464656D02*
G54D31*
D03*
G36*
X1272168Y-1128688D02*
X1301168Y-1128688D01*
X1301168Y-1157688D01*
X1272168Y-1157688D01*
X1272168Y-1128688D01*
G37*
X1286668Y-1185256D02*
G54D31*
D03*
X1231900Y-1143188D02*
G54D31*
D03*
X1231900Y-1185256D02*
G54D31*
D03*
G36*
X1272168Y-1242988D02*
X1301168Y-1242988D01*
X1301168Y-1271988D01*
X1272168Y-1271988D01*
X1272168Y-1242988D01*
G37*
X1286668Y-1299556D02*
G54D31*
D03*
X1231900Y-1257488D02*
G54D31*
D03*
X1231900Y-1299556D02*
G54D31*
D03*
G36*
X156034Y-513806D02*
X140034Y-513806D01*
X140034Y-497806D01*
X156034Y-497806D01*
X156034Y-513806D01*
G37*
X148034Y-531206D02*
G54D20*
D03*
X148034Y-556606D02*
G54D20*
D03*
X148034Y-582006D02*
G54D20*
D03*
X148034Y-607406D02*
G54D20*
D03*
X148034Y-632806D02*
G54D20*
D03*
X148034Y-658206D02*
G54D20*
D03*
G54D10*
X735409Y-1115406D02*
X735409Y-1140013D01*
X645715Y-163700D02*
G54D32*
D03*
X616789Y-163705D02*
G54D32*
D03*
X734615Y-163700D02*
G54D32*
D03*
X705689Y-163705D02*
G54D32*
D03*
X734615Y-231963D02*
G54D32*
D03*
X705689Y-231968D02*
G54D32*
D03*
X645715Y-231963D02*
G54D32*
D03*
X616789Y-231968D02*
G54D32*
D03*
X548084Y-231963D02*
G54D32*
D03*
X519158Y-231968D02*
G54D32*
D03*
X548084Y-301813D02*
G54D32*
D03*
X519158Y-301818D02*
G54D32*
D03*
X646112Y-301416D02*
G54D32*
D03*
X617186Y-301421D02*
G54D32*
D03*
X734615Y-301019D02*
G54D32*
D03*
X705689Y-301024D02*
G54D32*
D03*
X548084Y-430400D02*
G54D32*
D03*
X519158Y-430405D02*
G54D32*
D03*
X647303Y-430400D02*
G54D32*
D03*
X618377Y-430405D02*
G54D32*
D03*
X734615Y-430400D02*
G54D32*
D03*
X705689Y-430405D02*
G54D32*
D03*
X646906Y-512156D02*
G54D32*
D03*
X617980Y-512161D02*
G54D32*
D03*
X734615Y-512156D02*
G54D32*
D03*
X705689Y-512161D02*
G54D32*
D03*
X912018Y-430400D02*
G54D32*
D03*
X883092Y-430405D02*
G54D32*
D03*
X999728Y-430400D02*
G54D32*
D03*
X970802Y-430405D02*
G54D32*
D03*
X999728Y-511760D02*
G54D32*
D03*
X970802Y-511764D02*
G54D32*
D03*
X911622Y-511760D02*
G54D32*
D03*
X882696Y-511764D02*
G54D32*
D03*
X911622Y-608994D02*
G54D32*
D03*
X882696Y-608999D02*
G54D32*
D03*
X999331Y-609788D02*
G54D32*
D03*
X970405Y-609792D02*
G54D32*
D03*
X999728Y-665747D02*
G54D32*
D03*
X970802Y-665752D02*
G54D32*
D03*
X911622Y-665747D02*
G54D32*
D03*
X882696Y-665752D02*
G54D32*
D03*
X912018Y-723294D02*
G54D32*
D03*
X883092Y-723299D02*
G54D32*
D03*
X911622Y-780047D02*
G54D32*
D03*
X882696Y-780052D02*
G54D32*
D03*
X999331Y-723294D02*
G54D32*
D03*
X970405Y-723299D02*
G54D32*
D03*
X999331Y-780047D02*
G54D32*
D03*
X970405Y-780052D02*
G54D32*
D03*
X912018Y-869344D02*
G54D32*
D03*
X883092Y-869349D02*
G54D32*
D03*
X999331Y-869344D02*
G54D32*
D03*
X970405Y-869349D02*
G54D32*
D03*
X999331Y-925700D02*
G54D32*
D03*
X970405Y-925705D02*
G54D32*
D03*
X999728Y-983644D02*
G54D32*
D03*
X970802Y-983649D02*
G54D32*
D03*
X999331Y-1040000D02*
G54D32*
D03*
X970405Y-1040005D02*
G54D32*
D03*
X912018Y-983644D02*
G54D32*
D03*
X883092Y-983649D02*
G54D32*
D03*
X912018Y-1040000D02*
G54D32*
D03*
X883092Y-1040005D02*
G54D32*
D03*
X912018Y-1139219D02*
G54D32*
D03*
X883092Y-1139224D02*
G54D32*
D03*
X999331Y-1139616D02*
G54D32*
D03*
X970405Y-1139620D02*
G54D32*
D03*
X912018Y-1189225D02*
G54D32*
D03*
X883092Y-1189230D02*
G54D32*
D03*
X999728Y-1190019D02*
G54D32*
D03*
X970802Y-1190024D02*
G54D32*
D03*
X912018Y-1250344D02*
G54D32*
D03*
X883092Y-1250349D02*
G54D32*
D03*
X999331Y-1250344D02*
G54D32*
D03*
X970405Y-1250349D02*
G54D32*
D03*
X999331Y-1305906D02*
G54D32*
D03*
X970405Y-1305911D02*
G54D32*
D03*
X912018Y-1306700D02*
G54D32*
D03*
X883092Y-1306705D02*
G54D32*
D03*
X912018Y-1415444D02*
G54D32*
D03*
X883092Y-1415449D02*
G54D32*
D03*
X999331Y-1416238D02*
G54D32*
D03*
X970405Y-1416242D02*
G54D32*
D03*
X999331Y-1474975D02*
G54D32*
D03*
X970405Y-1474980D02*
G54D32*
D03*
X912018Y-1475372D02*
G54D32*
D03*
X883092Y-1475377D02*
G54D32*
D03*
X647303Y-1415841D02*
G54D32*
D03*
X618377Y-1415846D02*
G54D32*
D03*
X734615Y-1415444D02*
G54D32*
D03*
X705689Y-1415449D02*
G54D32*
D03*
X734615Y-1475372D02*
G54D32*
D03*
X705689Y-1475377D02*
G54D32*
D03*
X646906Y-1475372D02*
G54D32*
D03*
X617980Y-1475377D02*
G54D32*
D03*
X646906Y-608994D02*
G54D32*
D03*
X617980Y-608999D02*
G54D32*
D03*
X734615Y-609391D02*
G54D32*
D03*
X705689Y-609396D02*
G54D32*
D03*
X734615Y-665747D02*
G54D32*
D03*
X705689Y-665752D02*
G54D32*
D03*
X646906Y-665350D02*
G54D32*
D03*
X617980Y-665355D02*
G54D32*
D03*
X646906Y-723294D02*
G54D32*
D03*
X617980Y-723299D02*
G54D32*
D03*
X734615Y-723691D02*
G54D32*
D03*
X705689Y-723696D02*
G54D32*
D03*
X646906Y-779650D02*
G54D32*
D03*
X617980Y-779655D02*
G54D32*
D03*
X734615Y-779650D02*
G54D32*
D03*
X705689Y-779655D02*
G54D32*
D03*
X647303Y-869344D02*
G54D32*
D03*
X618377Y-869349D02*
G54D32*
D03*
X734615Y-869741D02*
G54D32*
D03*
X705689Y-869746D02*
G54D32*
D03*
X647303Y-925700D02*
G54D32*
D03*
X618377Y-925705D02*
G54D32*
D03*
X734615Y-925700D02*
G54D32*
D03*
X705689Y-925705D02*
G54D32*
D03*
X646906Y-983644D02*
G54D32*
D03*
X617980Y-983649D02*
G54D32*
D03*
X734218Y-984041D02*
G54D32*
D03*
X705292Y-984046D02*
G54D32*
D03*
X735409Y-1040397D02*
G54D32*
D03*
X706483Y-1040402D02*
G54D32*
D03*
X646906Y-1040000D02*
G54D32*
D03*
X617980Y-1040005D02*
G54D32*
D03*
X735409Y-1140013D02*
G54D32*
D03*
X706483Y-1140018D02*
G54D32*
D03*
X647303Y-1139219D02*
G54D32*
D03*
X618377Y-1139224D02*
G54D32*
D03*
X646906Y-1189225D02*
G54D32*
D03*
X617980Y-1189230D02*
G54D32*
D03*
X735012Y-1189225D02*
G54D32*
D03*
X706086Y-1189230D02*
G54D32*
D03*
X646906Y-1250344D02*
G54D32*
D03*
X617980Y-1250349D02*
G54D32*
D03*
X734615Y-1250741D02*
G54D32*
D03*
X705689Y-1250746D02*
G54D32*
D03*
X734615Y-1307097D02*
G54D32*
D03*
X705689Y-1307102D02*
G54D32*
D03*
X646906Y-1306700D02*
G54D32*
D03*
X617980Y-1306705D02*
G54D32*
D03*
X912018Y-163700D02*
G54D32*
D03*
X883092Y-163705D02*
G54D32*
D03*
X999331Y-163700D02*
G54D32*
D03*
X970405Y-163705D02*
G54D32*
D03*
X999331Y-231963D02*
G54D32*
D03*
X970405Y-231968D02*
G54D32*
D03*
X999331Y-301019D02*
G54D32*
D03*
X970405Y-301024D02*
G54D32*
D03*
X912018Y-231963D02*
G54D32*
D03*
X883092Y-231968D02*
G54D32*
D03*
X912018Y-301416D02*
G54D32*
D03*
X883092Y-301421D02*
G54D32*
D03*
X912018Y-925700D02*
G54D32*
D03*
X883092Y-925705D02*
G54D32*
D03*
X275431Y-703054D02*
G54D32*
D03*
X246505Y-703058D02*
G54D32*
D03*
X357187Y-703450D02*
G54D32*
D03*
X328261Y-703455D02*
G54D32*
D03*
X429418Y-703450D02*
G54D32*
D03*
X400492Y-703455D02*
G54D32*
D03*
X500062Y-703450D02*
G54D32*
D03*
X471136Y-703455D02*
G54D32*
D03*
X576262Y-703450D02*
G54D32*
D03*
X547336Y-703455D02*
G54D32*
D03*
X348853Y-430003D02*
G54D32*
D03*
X319927Y-430008D02*
G54D32*
D03*
X431006Y-430400D02*
G54D32*
D03*
X402080Y-430405D02*
G54D32*
D03*
X561975Y-781634D02*
G54D33*
D03*
X561970Y-752708D02*
G54D33*
D03*
X561975Y-866566D02*
G54D33*
D03*
X561970Y-837640D02*
G54D33*
D03*
X561975Y-980469D02*
G54D33*
D03*
X561970Y-951543D02*
G54D33*
D03*
X561975Y-1055875D02*
G54D33*
D03*
X561970Y-1026949D02*
G54D33*
D03*
X559197Y-1132075D02*
G54D33*
D03*
X559192Y-1103149D02*
G54D33*
D03*
X558403Y-1203513D02*
G54D33*
D03*
X558398Y-1174587D02*
G54D33*
D03*
X1060847Y-173225D02*
G54D34*
D03*
X1060847Y-218862D02*
G54D34*
D03*
X1060847Y-250219D02*
G54D34*
D03*
X1060847Y-295856D02*
G54D34*
D03*
X1060847Y-328006D02*
G54D34*
D03*
X1060847Y-373643D02*
G54D34*
D03*
X1060450Y-405000D02*
G54D34*
D03*
X1060450Y-450637D02*
G54D34*
D03*
X1060847Y-482788D02*
G54D34*
D03*
X1060847Y-528424D02*
G54D34*
D03*
X1060450Y-560575D02*
G54D34*
D03*
X1060450Y-606212D02*
G54D34*
D03*
X1060847Y-637966D02*
G54D34*
D03*
X1060847Y-683603D02*
G54D34*
D03*
X1060847Y-715754D02*
G54D34*
D03*
X1060847Y-761390D02*
G54D34*
D03*
X1060847Y-793541D02*
G54D34*
D03*
X1060847Y-839178D02*
G54D34*
D03*
X1060847Y-871725D02*
G54D34*
D03*
X1060847Y-917362D02*
G54D34*
D03*
X1060847Y-949116D02*
G54D34*
D03*
X1060847Y-994753D02*
G54D34*
D03*
X1060847Y-1026904D02*
G54D34*
D03*
X1060847Y-1072540D02*
G54D34*
D03*
X1060847Y-1104294D02*
G54D34*
D03*
X1060847Y-1149931D02*
G54D34*
D03*
X1060847Y-1182478D02*
G54D34*
D03*
X1060847Y-1228115D02*
G54D34*
D03*
X1060847Y-1259472D02*
G54D34*
D03*
X1060847Y-1305109D02*
G54D34*
D03*
X1060847Y-1337260D02*
G54D34*
D03*
X1060847Y-1382896D02*
G54D34*
D03*
X1060847Y-1414650D02*
G54D34*
D03*
X1060847Y-1460287D02*
G54D34*
D03*
G54D10*
X798115Y-1049922D02*
X773509Y-1049922D01*
X763984Y-1040397D01*
X735409Y-1040397D01*
X735409Y-1115406D01*
X801290Y-1115406D01*
X809228Y-1123741D01*
X809228Y-1139616D01*
X799703Y-1149141D01*
X798115Y-599469D02*
G54D35*
D03*
X819546Y-608994D02*
G54D35*
D03*
X798115Y-618519D02*
G54D35*
D03*
X798115Y-420875D02*
G54D35*
D03*
X819546Y-430400D02*
G54D35*
D03*
X798115Y-439925D02*
G54D35*
D03*
X798115Y-655825D02*
G54D35*
D03*
X819546Y-665350D02*
G54D35*
D03*
X798115Y-674875D02*
G54D35*
D03*
X798115Y-713769D02*
G54D35*
D03*
X819546Y-723294D02*
G54D35*
D03*
X798115Y-732819D02*
G54D35*
D03*
X798115Y-770125D02*
G54D35*
D03*
X819546Y-779650D02*
G54D35*
D03*
X798115Y-789175D02*
G54D35*
D03*
X798115Y-859819D02*
G54D35*
D03*
X819546Y-869344D02*
G54D35*
D03*
X798115Y-878869D02*
G54D35*
D03*
X798115Y-974119D02*
G54D35*
D03*
X819546Y-983644D02*
G54D35*
D03*
X798115Y-993169D02*
G54D35*
D03*
X798115Y-1030475D02*
G54D35*
D03*
X819546Y-1040000D02*
G54D35*
D03*
X798115Y-1049525D02*
G54D35*
D03*
X798115Y-1129694D02*
G54D35*
D03*
X819546Y-1139219D02*
G54D35*
D03*
X798115Y-1148744D02*
G54D35*
D03*
X798115Y-1179700D02*
G54D35*
D03*
X819546Y-1189225D02*
G54D35*
D03*
X798115Y-1198750D02*
G54D35*
D03*
X798115Y-1240819D02*
G54D35*
D03*
X819546Y-1250344D02*
G54D35*
D03*
X798115Y-1259869D02*
G54D35*
D03*
X798115Y-1297175D02*
G54D35*
D03*
X819546Y-1306700D02*
G54D35*
D03*
X798115Y-1316225D02*
G54D35*
D03*
X798115Y-1405919D02*
G54D35*
D03*
X819546Y-1415444D02*
G54D35*
D03*
X798115Y-1424969D02*
G54D35*
D03*
X798115Y-1465450D02*
G54D35*
D03*
X819546Y-1474975D02*
G54D35*
D03*
X798115Y-1484500D02*
G54D35*
D03*
X798115Y-154175D02*
G54D35*
D03*
X819546Y-163700D02*
G54D35*
D03*
X798115Y-173225D02*
G54D35*
D03*
X798115Y-222438D02*
G54D35*
D03*
X819546Y-231963D02*
G54D35*
D03*
X798115Y-241488D02*
G54D35*
D03*
X798115Y-916175D02*
G54D35*
D03*
X819546Y-925700D02*
G54D35*
D03*
X798115Y-935225D02*
G54D35*
D03*
X581818Y-46225D02*
G54D36*
D03*
X582215Y-69641D02*
G54D36*
D03*
X582215Y-93056D02*
G54D36*
D03*
X642937Y-70038D02*
G54D37*
D03*
G54D38*
X73606Y-86419D02*
X75676Y-86699D01*
X74946Y-86669D01*
X74156Y-86559D01*
X73136Y-86269D01*
X72566Y-86059D01*
X72066Y-85789D01*
X71506Y-85439D01*
X70766Y-84849D01*
X70120Y-84160D01*
X69546Y-83369D01*
X69236Y-82829D01*
X68866Y-81909D01*
X68676Y-81209D01*
X68556Y-80409D01*
X68516Y-79769D01*
X68526Y-57559D01*
X68546Y-54099D01*
X68646Y-53389D01*
X68656Y-53439D01*
X68826Y-52699D01*
X69116Y-51899D01*
X69556Y-51049D01*
X70286Y-50049D01*
X71086Y-49289D01*
X71776Y-48779D01*
X72436Y-48419D01*
X72996Y-48179D01*
X73756Y-47939D01*
X74196Y-47839D01*
X74686Y-47759D01*
X75526Y-47699D01*
X76266Y-47739D01*
G54D38*
X77475Y-86429D02*
X75405Y-86709D01*
X76135Y-86679D01*
X76925Y-86569D01*
X77945Y-86279D01*
X78515Y-86069D01*
X79015Y-85799D01*
X79575Y-85449D01*
X80315Y-84859D01*
X80960Y-84170D01*
X81535Y-83379D01*
X81845Y-82839D01*
X82215Y-81919D01*
X82405Y-81219D01*
X82525Y-80419D01*
X82565Y-79779D01*
X82555Y-57569D01*
X82535Y-54109D01*
X82435Y-53399D01*
X82425Y-53449D01*
X82255Y-52709D01*
X81965Y-51909D01*
X81525Y-51059D01*
X80795Y-50059D01*
X79995Y-49299D01*
X79305Y-48789D01*
X78645Y-48429D01*
X78085Y-48189D01*
X77325Y-47949D01*
X76885Y-47849D01*
X76395Y-47769D01*
X75555Y-47709D01*
X74815Y-47749D01*
G54D38*
X133606Y-86419D02*
X135676Y-86699D01*
X134946Y-86669D01*
X134156Y-86559D01*
X133136Y-86269D01*
X132566Y-86059D01*
X132066Y-85789D01*
X131506Y-85439D01*
X130766Y-84849D01*
X130120Y-84160D01*
X129546Y-83369D01*
X129236Y-82829D01*
X128866Y-81909D01*
X128676Y-81209D01*
X128556Y-80409D01*
X128516Y-79769D01*
X128526Y-57559D01*
X128546Y-54099D01*
X128646Y-53389D01*
X128656Y-53439D01*
X128826Y-52699D01*
X129116Y-51899D01*
X129556Y-51049D01*
X130286Y-50049D01*
X131086Y-49289D01*
X131776Y-48779D01*
X132436Y-48419D01*
X132996Y-48179D01*
X133756Y-47939D01*
X134196Y-47839D01*
X134686Y-47759D01*
X135526Y-47699D01*
X136266Y-47739D01*
G54D38*
X137475Y-86429D02*
X135405Y-86709D01*
X136135Y-86679D01*
X136925Y-86569D01*
X137945Y-86279D01*
X138515Y-86069D01*
X139015Y-85799D01*
X139575Y-85449D01*
X140315Y-84859D01*
X140960Y-84170D01*
X141535Y-83379D01*
X141845Y-82839D01*
X142215Y-81919D01*
X142405Y-81219D01*
X142525Y-80419D01*
X142565Y-79779D01*
X142555Y-57569D01*
X142535Y-54109D01*
X142435Y-53399D01*
X142425Y-53449D01*
X142255Y-52709D01*
X141965Y-51909D01*
X141525Y-51059D01*
X140795Y-50059D01*
X139995Y-49299D01*
X139305Y-48789D01*
X138645Y-48429D01*
X138085Y-48189D01*
X137325Y-47949D01*
X136885Y-47849D01*
X136395Y-47769D01*
X135555Y-47709D01*
X134815Y-47749D01*
G54D38*
X91328Y-113236D02*
X91048Y-115306D01*
X91078Y-114576D01*
X91188Y-113786D01*
X91478Y-112766D01*
X91688Y-112196D01*
X91958Y-111696D01*
X92308Y-111136D01*
X92898Y-110396D01*
X93588Y-109750D01*
X94378Y-109176D01*
X94918Y-108866D01*
X95838Y-108496D01*
X96538Y-108306D01*
X97338Y-108186D01*
X97978Y-108146D01*
X120188Y-108156D01*
X123648Y-108176D01*
X124358Y-108276D01*
X124308Y-108286D01*
X125048Y-108456D01*
X125848Y-108746D01*
X126698Y-109186D01*
X127698Y-109916D01*
X128458Y-110716D01*
X128968Y-111406D01*
X129328Y-112066D01*
X129568Y-112626D01*
X129808Y-113386D01*
X129908Y-113826D01*
X129988Y-114316D01*
X130048Y-115156D01*
X130008Y-115896D01*
G54D38*
X91318Y-117105D02*
X91038Y-115035D01*
X91068Y-115765D01*
X91178Y-116555D01*
X91468Y-117575D01*
X91678Y-118145D01*
X91948Y-118645D01*
X92298Y-119205D01*
X92888Y-119945D01*
X93578Y-120591D01*
X94368Y-121165D01*
X94908Y-121475D01*
X95828Y-121845D01*
X96528Y-122035D01*
X97328Y-122155D01*
X97968Y-122195D01*
X120178Y-122185D01*
X123638Y-122165D01*
X124348Y-122065D01*
X124298Y-122055D01*
X125038Y-121885D01*
X125838Y-121595D01*
X126688Y-121155D01*
X127688Y-120425D01*
X128448Y-119625D01*
X128958Y-118935D01*
X129318Y-118275D01*
X129558Y-117715D01*
X129798Y-116955D01*
X129898Y-116515D01*
X129978Y-116025D01*
X130038Y-115185D01*
X129998Y-114445D01*
X146050Y-96628D02*
G54D17*
D03*
G54D38*
X148431Y-251013D02*
X102790Y-251013D01*
X91281Y-239503D01*
X91281Y-216882D01*
X75803Y-201403D01*
X75803Y-112106D01*
X75803Y-86706D01*
X75803Y-112106D02*
G54D17*
D03*
X75406Y-26382D02*
G54D17*
D03*
G54D38*
X75406Y-26419D02*
X75280Y-47430D01*
G54D38*
X146006Y-96619D02*
X136135Y-86679D01*
X66006Y-293419D02*
G54D39*
D03*
X66006Y-1547419D02*
G54D39*
D03*
X1250006Y-1547419D02*
G54D39*
D03*
X1250006Y-82419D02*
G54D39*
D03*
M02*
